<?xml version="1.0" encoding="utf-8"?>
<!-- Generator: Adobe Illustrator 21.1.0, SVG Export Plug-In . SVG Version: 6.00 Build 0)  -->
<svg version="1.1" id="Calque_1" xmlns="http://www.w3.org/2000/svg" xmlns:xlink="http://www.w3.org/1999/xlink" x="0px" y="0px"
	 viewBox="0 0 35.4 35.4" style="enable-background:new 0 0 35.4 35.4;" xml:space="preserve">
<g>
	<g>
		<path d="M17.4,32.5c-8.1,0-14.6-6.6-14.6-14.6c0-8.1,6.6-14.6,14.6-14.6S32,9.8,32,17.8C32,25.9,25.5,32.5,17.4,32.5z M17.4,5.2
			c-7,0-12.6,5.7-12.6,12.6c0,7,5.7,12.6,12.6,12.6c7,0,12.6-5.7,12.6-12.6C30,10.9,24.4,5.2,17.4,5.2z"/>
	</g>
</g>
<polygon points="26.5,10.2 25.1,8.7 17.4,16.4 9.7,8.7 8.3,10.2 16,17.8 8.3,25.5 9.7,26.9 17.4,19.3 25.1,26.9 26.5,25.5 
	18.8,17.8 "/>
</svg>
