<svg xmlns="http://www.w3.org/2000/svg" xmlns:xlink="http://www.w3.org/1999/xlink" viewBox="0 0 24 30" version="1.1" x="0px" y="0px"><title>icon/circle-number</title><desc>Created with Sketch.</desc><g stroke="none" stroke-width="1" fill="none" fill-rule="evenodd"><path d="M10.6403882,9 L13.6096118,9 L14.0149287,7.37873219 C14.0819031,7.11083473 14.3533704,6.94795439 14.6212678,7.01492875 C14.8891653,7.08190311 15.0520456,7.35337036 14.9850713,7.62126781 L14.6403882,9 L15.5,9 C15.7761424,9 16,9.22385763 16,9.5 C16,9.77614237 15.7761424,10 15.5,10 L14.3903882,10 L13.6403882,13 L15.5,13 C15.7761424,13 16,13.2238576 16,13.5 C16,13.7761424 15.7761424,14 15.5,14 L13.3903882,14 L12.9850713,15.6212678 C12.9180969,15.8891653 12.6466296,16.0520456 12.3787322,15.9850713 C12.1108347,15.9180969 11.9479544,15.6466296 12.0149287,15.3787322 L12.3596118,14 L9.3903882,14 L8.98507125,15.6212678 C8.91809689,15.8891653 8.64662964,16.0520456 8.37873219,15.9850713 C8.11083473,15.9180969 7.94795439,15.6466296 8.01492875,15.3787322 L8.3596118,14 L7.5,14 C7.22385763,14 7,13.7761424 7,13.5 C7,13.2238576 7.22385763,13 7.5,13 L8.6096118,13 L9.3596118,10 L7.5,10 C7.22385763,10 7,9.77614237 7,9.5 C7,9.22385763 7.22385763,9 7.5,9 L9.6096118,9 L10.0149287,7.37873219 C10.0819031,7.11083473 10.3533704,6.94795439 10.6212678,7.01492875 C10.8891653,7.08190311 11.0520456,7.35337036 10.9850713,7.62126781 L10.6403882,9 Z M10.3903882,10 L9.6403882,13 L12.6096118,13 L13.3596118,10 L10.3903882,10 L10.3903882,10 Z M20,11.5 C20,6.80514237 16.1948576,3 11.5,3 C6.80514237,3 3,6.80514237 3,11.5 C3,16.1948576 6.80514237,20 11.5,20 C16.1948576,20 20,16.1948576 20,11.5 Z M21,11.5 C21,16.7471424 16.7471424,21 11.5,21 C6.25285763,21 2,16.7471424 2,11.5 C2,6.25285763 6.25285763,2 11.5,2 C16.7471424,2 21,6.25285763 21,11.5 Z" fill="#000000" fill-rule="nonzero"/></g><text x="0" y="39" fill="#000000" font-size="5px" font-weight="bold" font-family="'Helvetica Neue', Helvetica, Arial-Unicode, Arial, Sans-serif">Created by Travis Avery</text><text x="0" y="44" fill="#000000" font-size="5px" font-weight="bold" font-family="'Helvetica Neue', Helvetica, Arial-Unicode, Arial, Sans-serif">from the Noun Project</text></svg>