<?xml version="1.0" encoding="utf-8"?>
<!-- Generator: Adobe Illustrator 21.1.0, SVG Export Plug-In . SVG Version: 6.00 Build 0)  -->
<svg version="1.1" id="Calque_1" xmlns="http://www.w3.org/2000/svg" xmlns:xlink="http://www.w3.org/1999/xlink" x="0px" y="0px"
	 viewBox="0 0 333.9 129.3" style="enable-background:new 0 0 333.9 129.3;" xml:space="preserve">
<style type="text/css">
	.st0{clip-path:url(#SVGID_2_);}
	.st1{fill:#3C3C3B;}
	.st2{fill:#FFFFFF;}
	.st3{fill:none;stroke:#B1B1B1;stroke-miterlimit:10;}
	.st4{fill:#FFC100;}
	.st5{fill:none;stroke:#D9D9D9;stroke-miterlimit:10;}
	.st6{fill:#1D1D1B;}
	.st7{clip-path:url(#SVGID_4_);}
	.st8{fill:none;}
	.st9{fill:none;stroke:#000000;stroke-width:2;stroke-miterlimit:10;}
	.st10{fill:#B1B1B1;}
	.st11{fill:#C6C6C5;}
	.st12{opacity:0.3;}
	.st13{fill:#E32521;}
	.st14{fill:#E20613;}
	.st15{fill:none;stroke:#B1B1B1;stroke-miterlimit:10;stroke-dasharray:1,9;}
	.st16{fill:#FFFFFF;stroke:#000000;stroke-width:2;stroke-miterlimit:10;}
	.st17{fill:url(#SVGID_5_);}
	.st18{fill:#0000FF;}
	.st19{fill:none;stroke:#FFFFFF;stroke-width:2;stroke-miterlimit:10;}
	.st20{fill:url(#SVGID_6_);}
	.st21{fill:url(#SVGID_7_);}
	.st22{clip-path:url(#SVGID_9_);}
	.st23{fill:none;stroke:#FFFFFF;stroke-miterlimit:10;}
	.st24{fill:url(#SVGID_10_);}
	.st25{fill:#FFFFFF;stroke:#B1B1B1;stroke-miterlimit:10;}
	.st26{fill:#FFFFFF;stroke:#231F20;}
	.st27{fill:none;stroke:#231F20;stroke-width:2;}
	.st28{fill:#F4CD00;}
	.st29{fill:#D9272E;}
	.st30{fill:#000A8B;}
	.st31{fill:#231F20;}
	.st32{fill:#D9D9D9;}
	.st33{fill:#EDEDED;}
	.st34{fill:#DBD9D6;}
	.st35{fill:none;stroke:#1D1D1B;stroke-width:0.5;stroke-miterlimit:10;}
	.st36{clip-path:url(#SVGID_12_);}
</style>
<g>
	<rect x="167.1" y="-38.6" transform="matrix(-1.836970e-16 1 -1 -1.836970e-16 288.9493 -48.607)" width="3.4" height="317.6"/>
	<g>
		<path class="st8" d="M155.8,29.1l5.6,0l-0.1-1.3c-0.2-2.9-0.6-4.8-1.3-6.4c-0.6-1.6-1.4-2.4-2.3-2.4c-0.7,0-1.3,0.4-1.7,1.3
			c-0.4,0.9-0.6,2.1-0.6,3.7c0,1.2,0,2,0.1,3C155.7,28.1,155.6,28.2,155.8,29.1z"/>
		<path class="st8" d="M62.6,19.9c-0.6,0-1.1,0.6-1.4,1.7c-0.3,1.2-0.4,2.2-0.4,4.4c0,4.8,0.5,9.6,1.6,14.2c1,4.7,2.2,6.5,3.4,6.5
			c0.6,0,1.1-0.6,1.4-1.7c0.3-1.2,0.4-2.3,0.4-4.5c0-4.8-0.5-9.6-1.6-14.2C64.9,21.6,63.8,19.9,62.6,19.9z"/>
		<path d="M30.2,49.6c2.6,0,4.9-0.2,7-0.7c2-0.4,3.8-1.1,5.3-2c0.2-1.9,0.5-3.9,0.8-6c0.3-2.1,0.7-4.4,1.2-6.9l-1.7-0.4l-1,2
			c-2.5,5.1-4.1,8.2-5,9.2c-0.9,1.1-1.9,1.6-3.1,1.6c-1.5,0-3-0.9-4.5-2.7c-1.5-1.8-2.7-4.2-3.7-7.3c-0.6-2-1.1-4.1-1.4-6.4
			c-0.3-2.2-0.5-4.6-0.5-7c0-4.5,0.5-8,1.5-10.5c1-2.5,2.4-3.7,4.2-3.7c1.6,0,3.2,0.9,4.8,2.6c1.6,1.7,3.5,4.8,5.8,9.1l1,2l1.6-0.2
			c-0.3-3.3-0.5-5.9-0.6-7.8c-0.1-1.9-0.1-3.6-0.1-5.3c-1.4-0.8-3.1-1.5-5.2-2c-2.1-0.5-4.2-0.7-6.4-0.7c-6.6,0-12,1.9-16.2,5.8
			c-4.2,3.9-6.3,8.8-6.3,14.8c0,6.7,2.1,12.1,6.2,16.2C18,47.5,23.5,49.6,30.2,49.6z"/>
		<path d="M81.4,33.1c0-4.8-1.5-8.7-4.6-11.7c-3.1-3-7.2-4.5-12.3-4.5c-5.1,0-9.4,1.5-12.7,4.6c-3.3,3-5,7-5,11.9
			c0,4.8,1.6,8.7,4.7,11.7c3.1,3,7.2,4.5,12.3,4.5c5.1,0,9.4-1.5,12.7-4.5C79.7,42,81.4,38,81.4,33.1z M67.1,45
			c-0.3,1.2-0.8,1.7-1.4,1.7c-1.2,0-2.4-1.8-3.4-6.5c-1-4.7-1.6-9.4-1.6-14.2c0-2.2,0.1-3.2,0.4-4.4c0.3-1.2,0.8-1.7,1.4-1.7
			c1.2,0,2.3,1.7,3.4,6.3c1,4.7,1.6,9.4,1.6,14.2C67.5,42.7,67.5,43.9,67.1,45z"/>
		<path d="M141.6,46.8l-1-0.2c-0.6-0.1-1-0.6-1.1-1.4c-0.2-0.8-0.2-3.2-0.2-7.2v-21c0-2.2,0-4.4,0.1-6.7c0-2.3,0.1-4.1,0.2-5.5
			l-0.6-0.5c-2.2,0.4-4.4,0.7-6.6,0.9c-2.3,0.2-5.4,0.3-9.3,0.3v1.9l0.5,0.1c0.8,0.2,1.4,0.8,1.6,1.8c0.2,1,0.3,4.1,0.3,9.3V38
			c0,3.9-0.1,6.3-0.2,7.2c-0.2,0.8-0.5,1.3-1.1,1.4l-1,0.2v1.6c8.5,0,15,0.1,18.6,0.2V46.8z"/>
		<path d="M158.4,49.6c3.4,0,6.3-1,8.9-2.9c2.5-1.9,4.7-4.9,6.5-8.9l-0.9-0.8c-1.3,1.1-2.5,1.9-3.6,2.4c-1.1,0.5-2.4,0.7-3.7,0.7
			c-2.2,0-4-0.7-5.6-2.2c-1.6-1.4-2.8-3.5-3.6-6.1h16.2c0-0.4,0.1-0.9,0.1-1.4c0-0.5,0.1-0.9,0.1-1.3c0-3.4-1.2-6.3-3.6-8.6
			c-2.4-2.3-5.6-3.5-9.4-3.5c-4.5,0-8.4,1.6-11.6,4.7c-3.2,3.1-4.8,7-4.8,11.7c0,4.7,1.4,8.6,4.2,11.6
			C150.4,48.1,154,49.6,158.4,49.6z M155.5,24.1c0-1.6,0.2-2.8,0.6-3.7c0.4-0.9,1-1.3,1.7-1.3c0.9,0,1.6,0.8,2.3,2.4
			c0.6,1.6,1,3.5,1.3,6.4l0.1,1.3l-5.6,0c-0.2-0.9-0.1-1-0.2-2C155.5,26.1,155.5,25.3,155.5,24.1z"/>
		<path d="M212,48.3l0-3.3l-1-0.3c-0.6-0.2-1-0.7-1.1-1.7c-0.2-1-0.2-3.5-0.2-7.6v-5.7c0-2.2,0-4.4,0.1-6.7c0-2.3,0.1-4.1,0.2-5.5
			l-0.6-0.5c-2.2,0.4-4.4,0.7-6.6,0.9c-2.3,0.2-5.4,0.3-9.3,0.3v1.9l0.5,0.1c0.8,0.2,1.4,0.8,1.6,1.8c0.2,1,0.3,4.1,0.3,9.3v10.2
			c-0.4,0.4-0.7,0.7-1.1,0.9c-0.4,0.2-0.8,0.3-1.2,0.3c-1,0-1.7-0.5-2.2-1.4c-0.5-0.9-0.7-2.3-0.7-4.2v-7c0-2.2,0-4.5,0.1-6.9
			c0-2.4,0.1-4.2,0.2-5.6l-0.6-0.5c-2.2,0.4-4.4,0.7-6.6,0.9c-2.3,0.2-5.4,0.3-9.3,0.3v1.9l0.5,0.1c0.8,0.2,1.4,0.8,1.6,1.8
			c0.2,1,0.3,4.1,0.3,9.3v7.9c0,3.3,0.8,5.9,2.5,7.7c1.7,1.8,4,2.7,6.9,2.7c2.3,0,4.2-0.5,5.9-1.6c1.7-1.1,3-2.6,3.9-4.7
			c0.1,1.1,0.2,2.2,0.4,3.3c0.1,0.7,0.4,1.9,0.4,1.9l0.6,0c0.1,0,0.1,0,0.1,0C202.7,48.4,207.6,48.3,212,48.3z"/>
		<path d="M119.9,48.3l0-3.3l-1-0.3c-0.6-0.2-1-0.7-1.1-1.7c-0.2-1-0.2-3.5-0.2-7.6v-5.7c0-2.2,0-4.4,0.1-6.7c0-2.3,0.1-4.1,0.2-5.5
			l-0.6-0.5c-2.2,0.4-4.4,0.7-6.6,0.9c-2.3,0.2-5.4,0.3-9.3,0.3v1.9l0.5,0.1c0.8,0.2,1.4,0.8,1.6,1.8c0.2,1,0.3,4.1,0.3,9.3v10.2
			c-0.4,0.4-0.7,0.7-1.1,0.9c-0.4,0.2-0.8,0.3-1.2,0.3c-1,0-1.7-0.5-2.2-1.4c-0.5-0.9-0.7-2.3-0.7-4.2v-7c0-2.2,0-4.5,0.1-6.9
			c0-2.4,0.1-4.2,0.2-5.6L98,16.9c-2.2,0.4-4.4,0.7-6.6,0.9c-2.3,0.2-5.4,0.3-9.3,0.3v1.9l0.5,0.1c0.8,0.2,1.4,0.8,1.6,1.8
			c0.2,1,0.3,4.1,0.3,9.3v7.9c0,3.3,0.8,5.9,2.5,7.7c1.7,1.8,4,2.7,6.9,2.7c2.3,0,4.2-0.5,5.9-1.6c1.7-1.1,3-2.6,3.9-4.7
			c0.1,1.1,0.2,2.2,0.4,3.3c0.1,0.7,0.4,1.9,0.4,1.9l2.5,0c0.2,0,0.4,0,0.6,0C112,48.4,116.1,48.4,119.9,48.3z"/>
		<path d="M266,28.3c-3.3-1.7-5.6-3.1-6.8-4.1c-1.2-1-1.8-2.1-1.8-3.1c0-0.7,0.2-1.2,0.6-1.6c0.4-0.4,0.9-0.5,1.6-0.5
			c1.5,0,3.2,0.8,5,2.3c1.8,1.5,3.6,3.6,5.3,6.2h1.5c-0.1-1-0.1-2.3-0.2-3.7c0-1.5-0.1-2.8-0.1-3.9c-1.6-1-3.3-1.8-5-2.2
			c-1.7-0.5-3.5-0.7-5.5-0.7c-4.1,0-7.5,1-10,2.9c-2.5,1.9-3.8,4.4-3.8,7.5c0,2,0.5,3.8,1.6,5.4c1.1,1.6,2.9,3.1,5.3,4.5
			c4.2,2.4,6.8,4.1,7.8,5.1c1,1,1.5,2,1.5,3.1c0,0.6-0.2,1.1-0.7,1.5c-0.5,0.4-1.2,0.5-2.1,0.5c-1.9,0-3.8-0.7-5.7-2.2
			c-2-1.5-3.9-3.8-5.9-6.8H247c0.1,1.6,0.1,3,0.1,4.4c0,1.4,0,2.8-0.1,4.1c2.2,0.9,4.3,1.5,6.2,1.9c2,0.4,4,0.6,5.9,0.6
			c4.7,0,8.4-0.9,11-2.7c2.6-1.8,3.9-4.4,3.9-7.6c0-2.3-0.7-4.3-2-6.1C270.8,31.3,268.8,29.7,266,28.3z"/>
		<path d="M243.9,18.7c-1.1-1-2.3-1.6-3.8-1.7c-0.2,0-0.4,0-0.6,0c0,0,0,0,0,0c0,0,0,0,0,0c-1.6,0-3,0.5-4.1,1.3
			c-0.4,0.3-0.9,0.7-1.2,1.2c-1.4,1.7-2.6,4.5-3.5,8.3c0-1.4,0-3.1,0.1-5.1c0-2,0.1-3.7,0.2-5.2l-0.6-0.5c-2.2,0.4-4.4,0.7-6.6,0.9
			c-2.3,0.2-5.4,0.3-9.3,0.3v1.9l0.5,0.1c0.8,0.2,1.4,0.8,1.6,1.8c0.2,1,0.3,4.1,0.3,9.3V38c0,0.4,0,1.2,0,2.4c0,1.2,0,2,0,2.5
			c0,1.4-0.2,2.4-0.4,2.8c-0.2,0.5-0.7,0.8-1.5,1l-0.5,0.1v1.6c12.3,0,20.3,0.3,20.3,0.3v-1.9l-1.1-0.3c-1.4-0.4-2.2-1-2.5-1.9
			c-0.3-0.9-0.4-3.1-0.4-6.6v-7.2c0.5-1.5,1.2-2.6,2.2-3.3c0.5-0.3,1-0.6,1.7-0.8c0.1,0.2,0.3,0.3,0.5,0.5c1.2,1.1,2.7,1.7,4.5,1.7
			c1.8,0,3.4-0.6,4.6-1.7c1.2-1.1,1.8-2.6,1.8-4.3C245.7,21.2,245.1,19.8,243.9,18.7z"/>
	</g>
	<g>
		<path class="st8" d="M78.5,85.8c-0.6,0.7-0.9,1.5-1,3c-0.1,1,0.1,2.8,0.9,3.6c1.1,1.2,3.6,0.9,4.3,0.3v-7.9
			C82.8,84.8,80.3,83.9,78.5,85.8z"/>
		<path d="M47,58.7L38.4,83l-10-24.3c-2.9,0.2-5.9,0.2-8.8,0.2c-3,0-5.9-0.1-8.8-0.2v1.9l1,0.7c0.8,0.6,1.4,1.2,1.8,2.1
			c0.4,0.8,0.5,1.9,0.5,3.4v14.6c0,1.9,0,3.5-0.1,4.9c0,1.4-0.1,2.7-0.1,3.7c-0.2,2.5-0.4,4.3-0.8,5.4c-0.4,1.1-1.1,1.8-2.1,2.2
			l-1.1,0.4v1.9c1.8-0.1,4.6-0.2,6.9-0.2c2.3,0,4.4,0.1,6.2,0.2v-1.9l-0.8-0.2c-1.9-0.6-3.2-2.1-3.9-4.5c-0.7-2.4-1-6.3-1.1-11.9
			l0-12.7L29,97.5c1.1-0.1,2.2-0.1,3.3-0.1c1.1,0,2.2,0,3.3,0.1l10.9-30.5v22.2c0,3.9-0.1,6.3-0.2,7.2c-0.2,0.8-0.5,1.3-1.1,1.4
			l-1,0.2v1.9c2.9-0.2,6.2-0.2,9.6-0.2c3.5,0,6.7,0.1,9.6,0.2v-1.9l-1-0.2c-0.6-0.1-1-0.6-1.1-1.4C61.1,95.4,61,93,61,89.1v-20
			c0-3.8,0.1-6.1,0.2-6.9c0.2-0.8,0.5-1.3,1.1-1.4l1-0.2v-1.9C60.6,58.9,57.8,59,55,59C52.2,59,49.5,58.9,47,58.7z"/>
		<path d="M137.4,96.3c-0.2-0.8-0.2-3.2-0.2-7.2V78.5c0-3.3-0.8-5.9-2.5-7.7c-1.7-1.8-4-2.7-7-2.7c-2.1,0-4,0.5-5.6,1.6
			c-1.7,1-3.1,2.6-4.5,4.7c0-1.7,0.1-3,0.1-3.7c0-0.8,0-1.4,0.1-2l-0.6-0.5c-2.2,0.4-4.4,0.7-6.6,0.9c-2.3,0.2-5.4,0.3-9.3,0.3V71
			l0.5,0.1c0.8,0.2,1.4,0.8,1.6,1.8c0.2,1,0.3,4.1,0.3,9.3v6.8c0,3.9-0.1,6.3-0.2,7.2c-0.2,0.8-0.5,1.3-1.1,1.4l-1,0.2v1.9
			c2.9-0.2,6-0.2,9-0.2c3.1,0,6.1,0.1,9,0.2v-1.9l-0.5-0.1c-0.6-0.1-0.9-0.4-1.1-1c-0.2-0.5-0.2-3.1-0.2-7.7v-8.3c0-1.1,0-2,0-2.7
			c0-0.7,0-1.3,0.1-1.9c0.4-0.4,0.9-0.6,1.3-0.8c0.4-0.2,0.9-0.3,1.4-0.3c1.1,0,1.9,0.4,2.4,1.3c0.5,0.9,0.7,2.3,0.7,4.2v8.4
			c0,3.5-0.1,5.7-0.2,6.8c-0.1,1.1-0.5,1.7-1.1,1.9l-0.5,0.1v1.9c2.9-0.2,6-0.2,9-0.2c3.1,0,6.1,0.1,9,0.2v-1.9l-1-0.2
			C137.9,97.6,137.5,97.1,137.4,96.3z"/>
		<path d="M158.2,96.3c-0.2-0.8-0.2-3.2-0.2-7.2v-8.3c0-2.2,0-4.4,0.1-6.7c0-2.3,0.1-4.1,0.2-5.5l-0.6-0.5c-2.2,0.4-4.4,0.7-6.6,0.9
			c-2.3,0.2-5.4,0.3-9.3,0.3V71l0.5,0.1c0.8,0.2,1.4,0.8,1.6,1.8c0.2,1,0.3,4.1,0.3,9.3v6.8c0,3.9-0.1,6.3-0.2,7.2
			c-0.2,0.8-0.5,1.3-1.1,1.4l-1,0.2v1.9c3.1-0.2,6.2-0.2,9.3-0.2c3.2,0,6.3,0.1,9.3,0.2v-1.9l-1-0.2
			C158.7,97.6,158.3,97.1,158.2,96.3z"/>
		<path d="M151,52.4c-2.1,0-3.9,0.7-5.3,2c-1.4,1.3-2.1,3-2.1,5c0,2,0.7,3.7,2.1,5c1.4,1.3,3.2,2,5.3,2c2.2,0,3.9-0.7,5.3-2
			c1.4-1.3,2.1-3,2.1-5c0-2-0.7-3.7-2.1-5C154.9,53,153.1,52.4,151,52.4z"/>
		<path d="M236.1,79.4c-3.3-1.7-5.6-3.1-6.8-4.1c-1.2-1-1.8-2.1-1.8-3.1c0-0.7,0.2-1.2,0.6-1.6c0.4-0.4,0.9-0.5,1.6-0.5
			c1.5,0,3.2,0.8,5,2.3c1.8,1.5,3.6,3.6,5.3,6.2h1.5c-0.1-1-0.1-2.3-0.2-3.7c0-1.5-0.1-2.8-0.1-3.9c-1.6-1-3.3-1.8-5-2.2
			c-1.7-0.5-3.5-0.7-5.5-0.7c-4.1,0-7.5,1-10,2.9c-2.5,1.9-3.8,4.4-3.8,7.5c0,2,0.5,3.8,1.6,5.4c1.1,1.6,2.9,3.1,5.3,4.5
			c4.2,2.4,6.8,4.1,7.8,5.1c1,1,1.5,2,1.5,3.1c0,0.6-0.2,1.1-0.7,1.5c-0.5,0.4-1.2,0.5-2.1,0.5c-1.9,0-3.8-0.7-5.7-2.2
			c-2-1.5-3.9-3.8-5.9-6.8h-1.5c0.1,1.6,0.1,3,0.1,4.4c0,1.4,0,2.8-0.1,4.1c2.2,0.9,4.3,1.5,6.2,1.9c2,0.4,4,0.6,5.9,0.6
			c4.7,0,8.4-0.9,11-2.7c2.6-1.8,3.9-4.4,3.9-7.6c0-2.3-0.7-4.3-2-6.1C240.9,82.4,238.9,80.8,236.1,79.4z"/>
		<path d="M266.7,93.3c-0.5,0.2-1,0.3-1.6,0.3c-1.1,0-1.8-0.4-2.3-1.2c-0.5-0.8-0.7-2.2-0.7-4.1V71.6h6.3v-2.4h-6.3v-9.1l-1.5-0.4
			c-2.3,2.9-4.4,5.1-6.2,6.4c-1.8,1.3-3.9,2.2-6.1,2.7l-3.5,0.8v2h3.5V89c0,3.8,0.9,6.7,2.6,8.7c1.7,2,4.2,3,7.4,3
			c2.3,0,4.3-0.6,6-1.7c1.7-1.1,3.3-3,4.8-5.5l-0.9-1C267.7,92.9,267.2,93.1,266.7,93.3z"/>
		<path d="M327.4,84.2c-1.3-1.8-3.3-3.4-6.1-4.8c-3.3-1.7-5.6-3.1-6.8-4.1c-1.2-1-1.8-2.1-1.8-3.1c0-0.7,0.2-1.2,0.6-1.6
			c0.4-0.4,0.9-0.5,1.6-0.5c1.5,0,3.2,0.8,5,2.3c1.8,1.5,3.6,3.6,5.3,6.2h1.5c-0.1-1-0.1-2.3-0.2-3.7c0-1.5-0.1-2.8-0.1-3.9
			c-1.6-1-3.3-1.8-5-2.2c-1.7-0.5-3.5-0.7-5.5-0.7c-4.1,0-7.5,1-10,2.9c-2.5,1.9-3.8,4.4-3.8,7.5c0,2,0.5,3.8,1.6,5.4
			c1.1,1.6,2.9,3.1,5.3,4.5c4.2,2.4,6.8,4.1,7.8,5.1c1,1,1.5,2,1.5,3.1c0,0.6-0.2,1.1-0.7,1.5c-0.5,0.4-1.2,0.5-2.1,0.5
			c-1.9,0-3.8-0.7-5.7-2.2c-2-1.5-3.9-3.8-5.9-6.8h-1.5c0.1,1.6,0.1,3,0.1,4.4c0,1.4,0,2.8-0.1,4.1c2.2,0.9,4.3,1.5,6.2,1.9
			c2,0.4,4,0.6,5.9,0.6c4.7,0,8.4-0.9,11-2.7c2.6-1.8,3.9-4.4,3.9-7.6C329.4,88,328.8,86,327.4,84.2z"/>
	</g>
	<path d="M213.6,88.1l0.9,0.8c-1.8,4-4,7-6.5,8.9c-2.5,1.9-5.5,2.9-8.9,2.9c-4.4,0-8-1.5-10.8-4.5s-4.2-6.9-4.2-11.6
		c0-4.7,1.6-8.6,4.8-11.7c3.2-3.1,7-4.7,11.6-4.7c3.9,0,7,1.2,9.4,3.5c2.4,2.3,3.6,5.2,3.6,8.6c0,0.4,0,0.8-0.1,1.3
		c0,0.5-0.1,0.9-0.1,1.4h-16.2c0.8,2.6,2,4.7,3.6,6.1c1.6,1.4,3.5,2.2,5.6,2.2c1.3,0,2.5-0.2,3.7-0.7
		C211.1,90,212.3,89.2,213.6,88.1z M198.5,70.2c-0.7,0-1.3,0.4-1.7,1.3c-0.4,0.9-0.6,2.1-0.6,3.7c0,1.2,0,2,0.1,3c0.1,1,0,1.1,0.2,2
		l5.6,0l-0.1-1.3c-0.2-2.9-0.6-4.8-1.3-6.4C200.1,71,199.3,70.2,198.5,70.2z"/>
	<path d="M298.8,88.1l0.9,0.8c-1.8,4-4,7-6.5,8.9c-2.5,1.9-5.5,2.9-8.9,2.9c-4.4,0-8-1.5-10.8-4.5s-4.2-6.9-4.2-11.6
		c0-4.7,1.6-8.6,4.8-11.7c3.2-3.1,7-4.7,11.6-4.7c3.9,0,7,1.2,9.4,3.5c2.4,2.3,3.6,5.2,3.6,8.6c0,0.4,0,0.8-0.1,1.3
		c0,0.5-0.1,0.9-0.1,1.4h-16.2c0.8,2.6,2,4.7,3.6,6.1c1.6,1.4,3.5,2.2,5.6,2.2c1.3,0,2.5-0.2,3.7-0.7
		C296.3,90,297.5,89.2,298.8,88.1z M283.7,70.2c-0.7,0-1.3,0.4-1.7,1.3c-0.4,0.9-0.6,2.1-0.6,3.7c0,1.2,0,2,0.1,3c0.1,1,0,1.1,0.2,2
		l5.6,0l-0.1-1.3c-0.2-2.9-0.6-4.8-1.3-6.4C285.3,71,284.6,70.2,283.7,70.2z"/>
	<path d="M189.3,62c0-1.8-0.9-3.4-2.6-4.7c-1.8-1.3-3.9-2-6.5-2c-4.2,0-7.7,1.3-10.4,3.9c-2.7,2.6-4.3,5.9-4.6,10h-0.1l-3,0.4v2h3
		v17.5c0,3.9-0.1,6.3-0.2,7.2c-0.2,0.8-0.5,1.3-1.1,1.4l-1,0.2v1.9c3.1-0.2,6.4-0.2,9.6-0.2c3.3,0,6.5,0.1,9.6,0.2v-1.9l-1.3-0.2
		c-0.8-0.1-1.2-0.6-1.4-1.4c-0.2-0.8-0.3-3.2-0.3-7.2V71.6h5.3v-2.4h-5.3v-6.1c0-2.3,0.1-3.9,0.3-4.7c0.2-0.8,0.9-1.2,1.3-1.2
		c1,0,1.5,0.5,1.9,1.7c-0.2,0.1-0.4,0.3-0.6,0.5c-0.8,0.8-1.2,1.8-1.2,2.9c0,1.2,0.4,2.2,1.2,2.9c0.8,0.8,1.9,1.2,3.1,1.2
		c1.3,0,2.3-0.4,3.1-1.2c0.8-0.8,1.2-1.8,1.2-3C189.3,62.2,189.2,62.2,189.3,62C189.2,62.1,189.3,62.1,189.3,62z"/>
	<path d="M99.1,95.2c-0.3,0.2-0.5,0.3-0.7,0.3c-0.2,0-0.4,0.1-0.6,0.1c-0.6,0-0.9-0.2-1.1-0.5c-0.2-0.3-0.2-1-0.2-2.2
		c0-0.8,0-1.7,0-2.7c0-1,0-2.6,0.1-4.6c0-1.8,0.1-3.2,0.1-4c0-0.8,0-1.5,0-2.2c0-3.6-1.1-6.4-3.3-8.4c-2.2-2-5.2-3-9.1-3
		c-4,0-7.7,1.1-11.3,3.3c-3,1.9-4.7,3.9-5.2,6c-0.1,0.3-0.1,0.7-0.1,1.1c0,0.1,0,0.3,0,0.4c0,0,0,0,0,0c0.1,1,0.5,1.9,1.3,2.7
		c0.9,0.8,2,1.2,3.3,1.2c1.3,0,2.4-0.4,3.3-1.2c0.9-0.8,1.3-1.9,1.3-3.1c0-0.3,0-0.2-0.1-0.9c-0.1-0.7-1.3-4.3-0.1-5.4
		c0,0,0.4-0.5,1.3-0.5c1.3,0,2.4,0.9,3.3,2.8c0.9,1.9,1.3,4.3,1.3,7.3v1l-7,1c-3.3,0.4-5.7,1.3-7.3,2.6c-1.6,1.3-2.4,3.1-2.4,5.4
		c0,2.6,0.8,4.8,2.4,6.5c1.6,1.7,3.6,2.5,6.1,2.5c2,0,3.7-0.5,5-1.4c1.3-0.9,2.4-2.4,3.2-4.4v0.4c0,1.7,0.6,3,1.7,4
		c1.1,1,2.7,1.4,4.7,1.4c2,0,3.9-0.3,5.8-1c1.9-0.7,3.4-1.7,4.6-2.9L99.1,95.2z M82.8,92.8c-0.8,0.6-3.2,0.8-4.3-0.3
		c-0.8-0.8-1-2.6-0.9-3.6c0.1-1.5,0.4-2.3,1-3c1.8-1.9,4.3-1,4.3-1V92.8z"/>
	<path d="M307.7,11.8c-11,0-20,9-20,20c0,11,9,20,20,20c11,0,20-9,20-20C327.7,20.7,318.7,11.8,307.7,11.8z M324.8,31.7
		c0,2.6-0.6,5.1-1.7,7.4l-3.4-1.9c0.8-1.7,1.2-3.5,1.2-5.5c0-6.7-5.1-12.3-11.7-13v-3.9C317.9,15.5,324.8,22.8,324.8,31.7z
		 M307.7,21.5c3.4,0,6.3,1.6,8.2,4.1l-8.2,4.6l-8.2-4.6C301.4,23.2,304.4,21.5,307.7,21.5z M297.5,31.7c0-1.2,0.2-2.4,0.6-3.5
		l8.1,4.5v9C301.3,41.1,297.5,36.9,297.5,31.7z M309.2,32.8l8.1-4.5c0.4,1.1,0.6,2.2,0.6,3.5c0,5.1-3.8,9.4-8.7,10.1V32.8z
		 M306.3,14.8v3.9c-6.6,0.7-11.7,6.3-11.7,13c0,1.9,0.4,3.8,1.2,5.4l-3.4,1.9c-1.1-2.2-1.7-4.7-1.7-7.3
		C290.7,22.8,297.5,15.5,306.3,14.8z M307.7,48.8c-5.7,0-10.8-2.8-13.9-7.2l3.4-1.9c2.4,3.2,6.2,5.2,10.4,5.2c4.2,0,8-2,10.4-5.2
		l3.4,1.9C318.5,46,313.4,48.8,307.7,48.8z"/>
</g>
</svg>
