<?xml version="1.0" encoding="utf-8"?>
<!-- Generator: Adobe Illustrator 21.1.0, SVG Export Plug-In . SVG Version: 6.00 Build 0)  -->
<svg version="1.1" id="Calque_1" xmlns="http://www.w3.org/2000/svg" xmlns:xlink="http://www.w3.org/1999/xlink" x="0px" y="0px"
	 viewBox="0 0 43.3 47.7" style="enable-background:new 0 0 43.3 47.7;" xml:space="preserve">
<style type="text/css">
	.st0{clip-path:url(#SVGID_2_);}
	.st1{fill:#3C3C3B;}
	.st2{fill:#FFFFFF;}
	.st3{fill:none;stroke:#B1B1B1;stroke-miterlimit:10;}
	.st4{fill:#FFC100;}
	.st5{fill:none;stroke:#D9D9D9;stroke-miterlimit:10;}
	.st6{fill:#1D1D1B;}
	.st7{clip-path:url(#SVGID_4_);}
	.st8{fill:none;}
	.st9{fill:none;stroke:#000000;stroke-width:2;stroke-miterlimit:10;}
	.st10{fill:#B1B1B1;}
	.st11{fill:#C6C6C5;}
	.st12{opacity:0.3;}
	.st13{fill:#E32521;}
	.st14{fill:#E20613;}
	.st15{fill:none;stroke:#B1B1B1;stroke-miterlimit:10;stroke-dasharray:1,9;}
	.st16{fill:#FFFFFF;stroke:#000000;stroke-width:2;stroke-miterlimit:10;}
	.st17{fill:url(#SVGID_5_);}
	.st18{fill:#0000FF;}
	.st19{fill:none;stroke:#FFFFFF;stroke-width:2;stroke-miterlimit:10;}
	.st20{fill:url(#SVGID_6_);}
	.st21{fill:url(#SVGID_7_);}
	.st22{clip-path:url(#SVGID_9_);}
	.st23{fill:none;stroke:#FFFFFF;stroke-miterlimit:10;}
	.st24{fill:url(#SVGID_10_);}
	.st25{fill:#FFFFFF;stroke:#B1B1B1;stroke-miterlimit:10;}
	.st26{fill:#FFFFFF;stroke:#231F20;}
	.st27{fill:none;stroke:#231F20;stroke-width:2;}
	.st28{fill:#F4CD00;}
	.st29{fill:#D9272E;}
	.st30{fill:#000A8B;}
	.st31{fill:#231F20;}
	.st32{fill:#D9D9D9;}
	.st33{fill:#EDEDED;}
	.st34{fill:#DBD9D6;}
	.st35{fill:none;stroke:#1D1D1B;stroke-width:0.5;stroke-miterlimit:10;}
	.st36{clip-path:url(#SVGID_12_);}
</style>
<path d="M38.6,43.7l-8.1-11.2c3.7-3.2,5.8-7.9,5.7-12.8l0.1,0L36,18.3l-0.2-1.4l-0.1,0c-0.5-2.4-1.4-4.6-2.8-6.6
	c-2.6-3.6-6.5-5.9-10.8-6.6C18.2,3.1,14.3,3.9,11,5.9l0-0.1L9.8,6.7L8.7,7.5l0,0.1c-2.9,2.6-4.9,6-5.5,9.9c-0.7,4.4,0.4,8.8,3,12.3
	c1.4,2,3.3,3.5,5.4,4.7l0,0.1l1.3,0.6c0,0,0,0,0,0l1.3,0.6l0-0.1c1.7,0.6,3.6,0.9,5.4,0.9c3,0,6-0.8,8.6-2.4l8.1,11.1L38.6,43.7z
	 M12.7,8.2c2.7-1.6,5.9-2.2,9-1.7c3.6,0.6,6.8,2.5,9,5.5c1.1,1.6,1.9,3.3,2.3,5.2l-12.7,1.4l-4-5.6L12.7,8.2z M8.5,28.1
	c-2.2-3-3-6.6-2.5-10.2c0.5-3.1,2-6,4.4-8.1l3.5,4.8l4,5.6l-5.2,11.7C11.1,31,9.6,29.7,8.5,28.1z M15.4,33.1l4.1-9.1l1.1-2.6
	L33.3,20c0,4.4-2.1,8.5-5.6,11.1C24.1,33.7,19.5,34.4,15.4,33.1z"/>
</svg>
