<?xml version="1.0" encoding="utf-8"?>
<!-- Generator: Adobe Illustrator 21.1.0, SVG Export Plug-In . SVG Version: 6.00 Build 0)  -->
<svg version="1.1" id="Calque_1" xmlns="http://www.w3.org/2000/svg" xmlns:xlink="http://www.w3.org/1999/xlink" x="0px" y="0px"
	 viewBox="0 0 48 51.3" style="enable-background:new 0 0 48 51.3;" xml:space="preserve">
<style type="text/css">
	.st0{clip-path:url(#SVGID_2_);}
	.st1{fill:#3C3C3B;}
	.st2{fill:#FFFFFF;}
	.st3{fill:none;stroke:#B1B1B1;stroke-miterlimit:10;}
	.st4{fill:#FFC100;}
	.st5{fill:none;stroke:#D9D9D9;stroke-miterlimit:10;}
	.st6{fill:#1D1D1B;}
	.st7{clip-path:url(#SVGID_4_);}
	.st8{fill:none;}
	.st9{fill:none;stroke:#000000;stroke-width:2;stroke-miterlimit:10;}
	.st10{fill:#B1B1B1;}
	.st11{fill:#C6C6C5;}
	.st12{opacity:0.3;}
	.st13{fill:#E32521;}
	.st14{fill:#E20613;}
	.st15{fill:none;stroke:#B1B1B1;stroke-miterlimit:10;stroke-dasharray:1,9;}
	.st16{fill:#FFFFFF;stroke:#000000;stroke-width:2;stroke-miterlimit:10;}
	.st17{fill:url(#SVGID_5_);}
	.st18{fill:#0000FF;}
	.st19{fill:none;stroke:#FFFFFF;stroke-width:2;stroke-miterlimit:10;}
	.st20{fill:url(#SVGID_6_);}
	.st21{fill:url(#SVGID_7_);}
	.st22{clip-path:url(#SVGID_9_);}
	.st23{fill:none;stroke:#FFFFFF;stroke-miterlimit:10;}
	.st24{fill:url(#SVGID_10_);}
	.st25{fill:#FFFFFF;stroke:#B1B1B1;stroke-miterlimit:10;}
	.st26{fill:#FFFFFF;stroke:#231F20;}
	.st27{fill:none;stroke:#231F20;stroke-width:2;}
	.st28{fill:#F4CD00;}
	.st29{fill:#D9272E;}
	.st30{fill:#000A8B;}
	.st31{fill:#231F20;}
	.st32{fill:#D9D9D9;}
	.st33{fill:#EDEDED;}
	.st34{fill:#DBD9D6;}
	.st35{fill:none;stroke:#1D1D1B;stroke-width:0.5;stroke-miterlimit:10;}
	.st36{clip-path:url(#SVGID_12_);}
</style>
<g>
	<path d="M23.8,3.4L3.8,14.9v23l19.9,11.5l19.9-11.5v-23L23.8,3.4z M39.4,15.7l-15.7,9l-15.7-9l15.7-9L39.4,15.7z M6.7,18.2l15.7,9
		v18.1l-15.7-9V18.2z M25.2,45.3V27.2l15.7-9v18.1L25.2,45.3z"/>
	<path d="M13.7,29.6c-1-0.5-2.1,0.2-2.1,1.4c0.1,0.9,0.5,1.8,1.5,2.3c0.9,0.5,1.9,0,2.1-1C15.3,31.4,14.6,30.1,13.7,29.6z"/>
	<path d="M35.3,25.7c-0.1,0-0.3,0-0.4,0.1c-0.9,0.3-1.8,1.7-1.6,2.7c0.1,1,1,1.6,1.9,1.2c1-0.3,1.8-1.7,1.7-2.7
		C36.7,26.2,36.1,25.7,35.3,25.7z"/>
	<path d="M29.7,34.3c-0.8,0.5-1.2,1.2-1.4,2.1c-0.1,0.7,0.2,1.3,0.8,1.6c0.6,0.3,1.2,0.2,1.7-0.3c0.7-0.6,1-1.3,1.1-2
		C31.9,34.4,30.8,33.7,29.7,34.3z"/>
	<path d="M32.5,16.4c0.6-0.5,0.8-1.2,0.4-2c0-0.1-0.2-0.2-0.3-0.3c-0.7-0.7-2.3-0.8-3.1-0.2c-0.8,0.6-0.9,1.6-0.2,2.3
		C30.1,16.9,31.7,17,32.5,16.4z"/>
	<path d="M25.2,16.4c0.6-0.5,0.8-1.2,0.4-2c0-0.1-0.2-0.2-0.3-0.3c-0.7-0.7-2.3-0.8-3.1-0.2c-0.8,0.6-0.9,1.6-0.2,2.3
		C22.8,16.9,24.4,17,25.2,16.4z"/>
	<path d="M15.5,16.6c0.8,0.3,1.6,0.3,2.3,0c1.2-0.6,1.3-2,0.2-2.6c-0.8-0.5-1.6-0.5-2.5-0.2c-0.7,0.3-1.1,0.8-1.1,1.4
		C14.5,15.9,14.9,16.4,15.5,16.6z"/>
</g>
</svg>
