<?xml version="1.0" encoding="utf-8"?>
<!-- Generator: Adobe Illustrator 24.0.1, SVG Export Plug-In . SVG Version: 6.00 Build 0)  -->
<svg version="1.1" xmlns="http://www.w3.org/2000/svg" xmlns:xlink="http://www.w3.org/1999/xlink" x="0px" y="0px"
	 viewBox="0 0 750 1334" style="enable-background:new 0 0 750 1334;" xml:space="preserve">
<style type="text/css">
	.st0{fill:#FFFFFF;stroke:#231F20;stroke-width:3;}
	.st1{fill:#D1D3D4;}
	.st2{fill:#FFFFFF;stroke:#D1D3D4;stroke-width:3;}
	.st3{fill:none;stroke:#000000;stroke-width:3;}
	.st4{fill:#B2B2B2;}
	.st5{fill:none;stroke:#D7282F;stroke-width:12;stroke-miterlimit:10;}
	.st6{fill:none;stroke:#000B8C;stroke-width:12;stroke-miterlimit:10;}
	.st7{fill:none;stroke:#F2CD00;stroke-width:12;stroke-miterlimit:10;}
	.st8{fill:none;stroke:#24B34B;stroke-width:12;stroke-miterlimit:10;}
	.st9{fill:none;stroke:#231F20;stroke-width:12;}
	.st10{fill:#FFFFFF;}
	.st11{fill:#131718;}
	.st12{display:none;}
	.st13{display:inline;}
	.st14{fill:#010101;}
	.st15{fill:#F2CD00;}
	.st16{fill:#D7282F;}
	.st17{fill:#2F31AF;}
</style>
<g id="contours">
	<g>
		<polyline class="st0" points="331.3,1118 331.3,1093 270.5,1093 270.5,1104.6 82.1,1104.6 82.1,505.1 42.8,505.1 42.8,336.8 
			706.7,336.8 706.7,503.8 681.7,503.8 681.7,1104.8 481.3,1104.9 481.3,1093 420.6,1093 420.6,1118 		"/>
		<rect x="474.6" y="500.1" class="st1" width="175.2" height="33.4"/>
		<rect x="116.7" y="500.1" class="st1" width="159.9" height="34.6"/>
		<path class="st0" d="M331.3,1117.5"/>
		<path class="st0" d="M420.6,1092.2"/>
		<path class="st0" d="M420.6,1104.3"/>
		<g>
			<polygon class="st2" points="312.8,900.3 287.4,900.3 274.8,922.3 287.4,944.2 312.8,944.2 325.5,922.3 			"/>
			<polygon class="st2" points="351,922.3 325.7,922.3 313,944.2 325.7,966.2 351,966.2 363.7,944.2 			"/>
			<polygon class="st2" points="388.3,900.3 362.9,900.3 350.3,922.3 362.9,944.2 388.3,944.2 401,922.3 			"/>
			<polygon class="st2" points="424.8,922.3 399.5,922.3 386.8,944.2 399.5,966.2 424.8,966.2 437.5,944.2 			"/>
			<polygon class="st2" points="462.1,900.3 436.7,900.3 424.1,922.3 436.7,944.2 462.1,944.2 474.8,922.3 			"/>
		</g>
	</g>
	<g>
		<line class="st3" x1="375.6" y1="1227.3" x2="375.6" y2="1141.9"/>
		<polyline class="st3" points="343.2,1174.3 375.6,1141.9 408,1174.3 		"/>
	</g>
	<g>
		<g>
			<path class="st4" d="M301.5,1253.4h18.4v3.5h-14.8v8.3h12.7v3.5h-12.7v10.2h15.2v3.5h-18.8V1253.4z"/>
			<path class="st4" d="M326.3,1253.4h4l12.1,22.4v-22.4h3.6v29h-4l-12.1-22.4v22.4h-3.7V1253.4z"/>
			<path class="st4" d="M351,1253.4h21.7v3.5h-9v25.5h-3.6v-25.5h-9V1253.4z"/>
			<path class="st4" d="M378,1253.4h10.2c2.7,0,4.7,0.6,6.3,2c1.5,1.3,2.3,3.2,2.3,5.7c0,4.1-2,6.6-6.1,7.4l8.7,13.9H395l-8.5-13.7
				h-4.9v13.7H378V1253.4z M388.2,1265.3c3.1,0,4.7-1.4,4.7-4.2s-1.6-4.2-4.7-4.2h-6.6v8.4H388.2z"/>
			<path class="st4" d="M404.1,1253.4h18.4v3.5h-14.8v8.3h12.7v3.5h-12.7v10.2h15.2v3.5h-18.8V1253.4z M413.3,1245.1h5l-5.1,6h-2.7
				L413.3,1245.1z"/>
			<path class="st4" d="M429.8,1253.4h18.4v3.5h-14.8v8.3h12.7v3.5h-12.7v10.2h15.2v3.5h-18.8V1253.4z"/>
		</g>
	</g>
</g>
<g id="zones">
	<g>
		<g>
			<polyline class="st5" points="486.9,1063.3 639.2,1063.3 639.2,754.3 			"/>
			<polyline class="st6" points="475,572.8 639.2,572.8 639.2,757.1 			"/>
			<polyline class="st7" points="260.5,1063.4 124.2,1063.4 124.2,689.1 			"/>
			<polyline class="st8" points="276.6,572.8 124.2,572.8 124.2,692.5 			"/>
		</g>
		<polyline class="st9" points="475,460 664.3,460 664.3,377.1 84.7,377.1 84.7,460.2 276.6,460.2 		"/>
	</g>
</g>
<g id="Zones">
	<g>
		<circle class="st10" cx="501.5" cy="460.2" r="27.2"/>
		<path class="st11" d="M501.6,432.6c-15.2,0-27.5,12.3-27.5,27.5c0,15.2,12.3,27.5,27.5,27.5c15.2,0,27.5-12.3,27.5-27.5
			C529.1,445,516.7,432.6,501.6,432.6z M480.4,470.3c-1.5-3.1-2.3-6.5-2.3-10.1c0-12.3,9.4-22.3,21.4-23.4v5.4
			c-9,1-16.1,8.7-16.1,18c0,2.7,0.6,5.2,1.6,7.5L480.4,470.3z M501.6,483.6c-7.9,0-14.9-3.9-19.1-9.9l4.7-2.7
			c3.3,4.3,8.5,7.1,14.4,7.1c5.8,0,11-2.8,14.4-7.1l4.7,2.7C516.4,479.7,509.4,483.6,501.6,483.6z M518,467.7
			c1.1-2.3,1.6-4.8,1.6-7.5c0-9.3-7-17-16.1-18v-5.4c12,1,21.4,11.1,21.4,23.4c0,3.6-0.8,7.1-2.3,10.2L518,467.7z"/>
	</g>
</g>
<g id="Zone_multi" class="st12">
	<g class="st13">
		<path class="st14" d="M375.6,641.4c-47.4,0-86,38.6-86,86c0,47.4,38.6,86,86,86c47.4,0,86-38.6,86-86
			C461.6,680,423,641.4,375.6,641.4z M309.4,759c-4.6-9.6-7.2-20.3-7.2-31.6c0-38.3,29.5-69.9,67-73.1v16.9
			c-28.2,3.2-50.2,27.1-50.2,56.2c0,8.3,1.8,16.2,5.1,23.3L309.4,759z M375.6,800.8c-24.6,0-46.4-12.2-59.8-30.9l14.8-8.3
			c10.3,13.6,26.6,22.3,45,22.3c18.3,0,34.5-8.7,44.9-22.2l14.8,8.3C421.9,788.6,400.2,800.8,375.6,800.8z M427,750.9
			c3.3-7.2,5.1-15.1,5.1-23.5c0-29-22-53-50.2-56.2v-16.9c37.5,3.2,67,34.8,67,73.1c0,11.4-2.6,22.1-7.2,31.8L427,750.9z"/>
		<path class="st15" d="M375.6,683.5c14.5,0,27.3,7,35.3,17.8L375.7,721l-35.3-19.7C348.4,690.5,361.2,683.5,375.6,683.5z"/>
		<path class="st16" d="M331.7,727.4c0-5.3,0.9-10.3,2.6-15l34.9,19.5v38.9C348.1,767.7,331.7,749.4,331.7,727.4z"/>
		<path class="st17" d="M381.9,732l35-19.5c1.7,4.7,2.6,9.7,2.6,14.9c0,22-16.3,40.3-37.6,43.4V732z"/>
	</g>
</g>
<g id="Titre">
	<g>
		<g>
			<g>
				<path d="M91.4,260.1l2.2,0.5v4.3c-7.1-0.3-14.7-0.5-23-0.5s-15.9,0.2-22.9,0.5v-4.1l2.2-0.4c1.3-0.3,2.1-1.3,2.5-3.1
					c0.3-1.8,0.5-7,0.5-15.5v-43.6c0-8.6-0.2-13.9-0.5-15.6c-0.3-1.8-1.2-2.8-2.5-3.1l-2.2-0.4v-4.1c2.5,0.2,5.3,0.3,8.2,0.4
					c3,0.1,6.3,0.1,10.1,0.1c1.4,0,2.9,0,4.6-0.1s4.2-0.1,7.7-0.2c3.8-0.1,6.7-0.2,8.6-0.2c1.9,0,3.7-0.1,5.4-0.1
					c13.5,0,23.5,2,30,6.1s9.8,10.3,9.8,18.7c0,8.7-4.4,16-13.2,21.8c-8.8,5.8-20.2,8.8-34.4,9v11c0,7.4,0.4,12.2,1.2,14.3
					C86.5,258,88.4,259.4,91.4,260.1z M99.6,205.9c0-6.3-1.6-12.1-4.7-17.5c-3.1-5.4-6.6-8.1-10.3-8.1v45.3
					c4.7-0.3,8.4-2.3,11.1-5.9C98.3,216.1,99.6,211.5,99.6,205.9z"/>
				<path d="M152.8,243.2v-44.8c0-8.6-0.2-13.9-0.5-15.7c-0.3-1.8-1.2-2.9-2.5-3.1l-2.2-0.4v-4.1c6.5,0.3,13.5,0.5,21.1,0.5
					c7.6,0,14.6-0.2,21-0.5v4.1l-2.2,0.4c-1.3,0.3-2.1,1.3-2.5,3.1c-0.3,1.8-0.5,7.1-0.5,15.7v45.4c0,6.6,0.5,11,1.5,13
					c1,2.1,2.9,3.1,5.6,3.1c2.5,0,5.5-1.6,8.8-4.8c3.4-3.2,8.2-9,14.5-17.3l2.9-3.8l3.1,0.9c-1.3,4.8-2.4,9.6-3.4,14.5
					c-1,4.9-1.7,10-2.2,15.4c-11.1-0.3-22.3-0.5-33.6-0.5c-11.3,0-22.7,0.2-34,0.5v-4.1l2.2-0.4c1.3-0.3,2.1-1.2,2.5-2.9
					C152.6,256,152.8,251.2,152.8,243.2z"/>
				<path d="M321.1,260.5l1.6,0.4v4.1c-7.1-0.3-14.7-0.5-22.8-0.5c-8.2,0-15.8,0.2-23,0.5v-4.1l1.7-0.5c1.9-0.6,3.1-1.9,3.4-3.8
					c0.3-1.9,0-4.6-1.2-8.1l-3.1-9.8h-24.5l-0.5,2.1c-1.5,5.8-1.7,10.2-0.7,13.3c1,3.1,3.4,5.2,7.1,6.4l1.7,0.5v4.1
					c-4.8-0.3-9.6-0.5-14.5-0.5c-4.8,0-9.3,0.2-13.3,0.5v-4.1l2.1-0.7c3-0.9,5.3-2.7,6.9-5.6c1.6-2.9,3.4-7.8,5.4-14.7l10.7-36.9
					c0.7-2.4,1.2-4.7,1.6-6.7s0.5-3.7,0.5-5.1c0-1.6-0.3-2.9-0.8-3.9c-0.5-1-1.4-1.9-2.5-2.6l-2.4-1.6v-3.4
					c5.2,0.3,10.5-0.2,15.9-1.6c5.4-1.4,10.2-3.5,14.6-6.3h2.6l26.7,75.8c2.2,6.3,3.6,9.9,4.3,10.9
					C319.3,259.6,320.1,260.3,321.1,260.5z M264.3,197.3l-9.7,36.1h21.3L264.3,197.3z"/>
				<path d="M359.6,260.4l1.7,0.5v4.1c-4-0.3-8.5-0.4-13.5-0.4c-5,0-9.5,0.1-13.5,0.4v-4.1l2.4-0.8c2.2-0.7,3.7-2.3,4.6-4.7
					c0.9-2.4,1.5-6.4,1.8-11.8c0.1-2.4,0.2-5.1,0.3-8.2c0.1-3.1,0.1-6.7,0.1-10.8v-32.1c0-2.3-0.5-4.4-1.6-6.3
					c-1-1.9-2.6-3.7-4.6-5.2l-2.5-1.8v-4.1c5.1,0.3,11.2,0.5,18.5,0.5c7.3,0,13.4-0.2,18.4-0.5l36.3,54.7l-0.3-14
					c-0.1-4.6-0.2-8.5-0.3-11.7c-0.1-3.1-0.3-5.8-0.6-8.1c-0.4-5.2-1.3-8.9-2.5-11.1c-1.2-2.3-3.3-3.9-6.3-5l-2.2-0.8v-4.1
					c3.8,0.3,8,0.5,12.6,0.5c4.6,0,8.7-0.2,12.5-0.5v4.1l-1.8,0.7c-1.9,0.7-3.3,2.3-4.1,4.8c-0.8,2.5-1.4,6.5-1.6,12.1
					c-0.2,2.4-0.3,5.1-0.3,8.2c0,3.1-0.1,6.7-0.1,10.8v48.8c-3.1-0.2-6.2-0.3-9.3-0.3c-3.1,0-6.2,0.1-9.3,0.3l-45.9-68.7l0.4,28.8
					c0.2,12.2,1,20.9,2.4,26C352.6,255.8,355.4,259.1,359.6,260.4z"/>
			</g>
			<g>
				<path d="M452,235.6h7.8c3.7,0,6.8,1.3,9.3,3.8c2.5,2.5,3.7,6,3.7,10.4c0,4.4-1.3,7.9-3.8,10.4c-2.5,2.5-5.6,3.8-9.2,3.8H452
					V235.6z M459.1,260.6c2.7,0,5-0.8,6.9-2.4c1.9-1.6,3-4.6,3-8.4c0-3.9-1.1-6.8-3-8.4c-1.9-1.6-4.1-2.4-6.9-2.4h-3.6v21.5H459.1z"
					/>
				<path d="M481.9,235.6h16.3v3.4h-12.7v8.1h10.3v3.4h-10.3v10h13.1v3.4h-16.6V235.6z"/>
				<path d="M522.3,235.6h3.6v24.9h12.9v3.4h-16.4V235.6z"/>
				<path d="M553.1,235.6h3.4l9.8,28.3h-3.6l-2.5-7.6h-10.8l-2.5,7.6h-3.6L553.1,235.6z M559.1,253l-4.3-12.7l-4.3,12.7H559.1z"/>
				<path d="M589,254.8c0.5,1.9,1.3,3.4,2.2,4.5c0.9,1.1,2.2,1.6,3.9,1.6c1.6,0,2.9-0.5,3.8-1.6c0.7-0.9,1.1-2,1.1-3.4
					c0-1.2-0.5-2.3-1.4-3.1c-0.9-0.8-2.3-1.6-4-2.4c-1.1-0.5-2-1-2.7-1.4c-0.7-0.4-1.4-0.9-2.1-1.6c-1.4-1.3-2.1-2.9-2.1-5
					c0-2.1,0.7-3.8,2.1-5.1c1.4-1.4,3-2.1,4.9-2.1c1.9,0,3.4,0.4,4.5,1.2c1.1,0.8,2.1,1.9,2.8,3.3l-2.9,1.9c-0.7-1.2-1.3-2-2-2.4
					c-0.7-0.4-1.5-0.6-2.5-0.6c-1,0-1.8,0.4-2.4,1.1c-0.6,0.7-1,1.5-1,2.5c0,1.3,0.4,2.3,1.7,3.3c0.6,0.5,1.2,0.8,1.6,1.1
					c0.4,0.2,1.2,0.6,2.2,1.1c0.8,0.4,1.5,0.8,2,1c0.5,0.3,1.1,0.7,1.8,1.2c0.7,0.5,1.2,1,1.6,1.5c0.8,1,1.4,2.6,1.4,4.4
					c0,2.3-0.7,4.2-2.2,5.8c-1.6,1.8-3.7,2.7-6.3,2.7c-2.3,0-4.3-0.7-5.9-2.1c-1.7-1.4-2.7-3.3-3.2-5.5L589,254.8z"/>
				<path d="M619,235.6h3.4l9.8,28.3h-3.6l-2.5-7.6h-10.8l-2.5,7.6h-3.6L619,235.6z M625,253l-4.3-12.7l-4.3,12.7H625z"/>
				<path d="M640,235.6h3.6v24.9h12.9v3.4H640V235.6z"/>
				<path d="M664.4,235.6h3.6v24.9h12.9v3.4h-16.4V235.6z"/>
				<path d="M688.1,235.6h16.3v3.4h-12.7v8.1h10.3v3.4h-10.3v10h13.1v3.4h-16.6V235.6z"/>
			</g>
		</g>
	</g>
</g>
</svg>
