<?xml version="1.0" encoding="utf-8"?>
<!-- Generator: Adobe Illustrator 21.1.0, SVG Export Plug-In . SVG Version: 6.00 Build 0)  -->
<svg version="1.1" id="Calque_1" xmlns="http://www.w3.org/2000/svg" xmlns:xlink="http://www.w3.org/1999/xlink" x="0px" y="0px"
	 viewBox="0 0 238 343.7" style="enable-background:new 0 0 238 343.7;" xml:space="preserve">
<style type="text/css">
	.st0{clip-path:url(#SVGID_2_);}
	.st1{fill:#3C3C3B;}
	.st2{fill:#FFFFFF;}
	.st3{fill:none;stroke:#B1B1B1;stroke-miterlimit:10;}
	.st4{fill:#FFC100;}
	.st5{fill:none;stroke:#D9D9D9;stroke-miterlimit:10;}
	.st6{fill:#1D1D1B;}
	.st7{clip-path:url(#SVGID_4_);}
	.st8{fill:none;}
	.st9{fill:none;stroke:#000000;stroke-width:2;stroke-miterlimit:10;}
	.st10{fill:#B1B1B1;}
	.st11{fill:#C6C6C5;}
	.st12{opacity:0.3;}
	.st13{fill:#E32521;}
	.st14{fill:#E20613;}
	.st15{fill:none;stroke:#B1B1B1;stroke-miterlimit:10;stroke-dasharray:1,9;}
	.st16{fill:#FFFFFF;stroke:#000000;stroke-width:2;stroke-miterlimit:10;}
	.st17{fill:url(#SVGID_5_);}
	.st18{fill:#0000FF;}
	.st19{fill:none;stroke:#FFFFFF;stroke-width:2;stroke-miterlimit:10;}
	.st20{fill:url(#SVGID_6_);}
	.st21{fill:url(#SVGID_7_);}
	.st22{clip-path:url(#SVGID_9_);}
	.st23{fill:none;stroke:#FFFFFF;stroke-miterlimit:10;}
	.st24{fill:url(#SVGID_10_);}
	.st25{fill:#FFFFFF;stroke:#B1B1B1;stroke-miterlimit:10;}
	.st26{fill:#FFFFFF;stroke:#231F20;}
	.st27{fill:none;stroke:#231F20;stroke-width:2;}
	.st28{fill:#F4CD00;}
	.st29{fill:#D9272E;}
	.st30{fill:#000A8B;}
	.st31{fill:#231F20;}
	.st32{fill:#D9D9D9;}
	.st33{fill:#EDEDED;}
	.st34{fill:#DBD9D6;}
	.st35{fill:none;stroke:#1D1D1B;stroke-width:0.5;stroke-miterlimit:10;}
	.st36{font-family:'Apercu-Mono';}
	.st37{font-size:14px;}
	.st38{clip-path:url(#SVGID_12_);}
</style>
<g>
	<g>
		<polyline class="st26" points="104.4,273.2 104.4,264.7 83.8,264.7 83.8,268.7 20.2,268.7 20.2,66 6.9,66 6.9,9.1 231.4,9.1 
			231.4,65.5 222.9,65.5 222.9,268.7 155.1,268.8 155.1,264.7 134.6,264.7 134.6,273.2 		"/>
		<rect x="150.8" y="64.3" class="st26" width="59.2" height="11.3"/>
		<rect x="31.9" y="64.3" class="st26" width="55.6" height="11.7"/>
		<circle class="st26" cx="87.5" cy="208.5" r="4.1"/>
		<circle class="st26" cx="156.9" cy="208.5" r="4.1"/>
	</g>
	<g>
		<line class="st27" x1="119.4" y1="319.6" x2="119.4" y2="290.7"/>
		<polyline class="st27" points="108.5,301.6 119.4,290.7 130.4,301.6 		"/>
	</g>
	<path class="st28" d="M75.5,262.3H29.2c-1.1,0-2-0.9-2-2V84.9c0-1.1,0.9-2,2-2h46.3c1.1,0,2,0.9,2,2v175.4
		C77.5,261.4,76.6,262.3,75.5,262.3z"/>
	<path class="st29" d="M215,262.3h-46.3c-1.1,0-2-0.9-2-2v-82.7c0-1.1,0.9-2,2-2H215c1.1,0,2,0.9,2,2v82.7
		C217,261.4,216.1,262.3,215,262.3z"/>
	<path class="st30" d="M215,170.2h-46.3c-1.1,0-2-0.9-2-2V84.9c0-1.1,0.9-2,2-2H215c1.1,0,2,0.9,2,2v83.3
		C217,169.3,216.1,170.2,215,170.2z"/>
	<path class="st31" d="M12.4,57.6V15.8c0-1.1,0.9-2,2-2h101.1c1.1,0,2,0.9,2,2v41.8c0,1.1-0.9,2-2,2H14.4
		C13.3,59.6,12.4,58.7,12.4,57.6z"/>
	<path class="st32" d="M122.8,57.6V15.8c0-1.1,0.9-2,2-2h99.5c1.1,0,2,0.9,2,2v41.8c0,1.1-0.9,2-2,2h-99.5
		C123.7,59.6,122.8,58.7,122.8,57.6z"/>
</g>
<g>
	<text transform="matrix(1 0 0 1 92.4793 336.8976)" class="st10 st36 st37">ENTRÉE</text>
</g>
</svg>
