<?xml version="1.0" encoding="utf-8"?>
<!-- Generator: Adobe Illustrator 24.0.1, SVG Export Plug-In . SVG Version: 6.00 Build 0)  -->
<svg version="1.1" id="Calque_1" xmlns="http://www.w3.org/2000/svg" xmlns:xlink="http://www.w3.org/1999/xlink" x="0px" y="0px"
	 viewBox="0 0 35.4 35.4" style="enable-background:new 0 0 35.4 35.4;" xml:space="preserve">
<g>
	<g>
		<path d="M17.4,32.5c-8.1,0-14.6-6.6-14.6-14.6c0-8.1,6.6-14.6,14.6-14.6S32,9.8,32,17.8C32,25.9,25.5,32.5,17.4,32.5z M17.4,5.2
			c-7,0-12.6,5.7-12.6,12.6c0,7,5.7,12.6,12.6,12.6c7,0,12.6-5.7,12.6-12.6S24.4,5.2,17.4,5.2z"/>
	</g>
</g>
<path d="M21.4,8.4h-2.5c-2.1,0-3.8,1.7-3.8,3.8V15h-2.4c-0.6,0-1.1,0.5-1.1,1.1c0,0.6,0.5,1.1,1.1,1.1h2.4v9.9
	c0,0.6,0.5,1.1,1.1,1.1c0.6,0,1.1-0.5,1.1-1.1v-9.9h3.7c0.6,0,1.1-0.5,1.1-1.1c0-0.6-0.5-1.1-1.1-1.1h-3.7v-2.9
	c0-0.9,0.7-1.6,1.6-1.6h2.5c0.6,0,1.1-0.5,1.1-1.1S22,8.4,21.4,8.4z"/>
</svg>
