<?xml version="1.0" encoding="utf-8"?>
<!-- Generator: Adobe Illustrator 24.0.1, SVG Export Plug-In . SVG Version: 6.00 Build 0)  -->
<svg version="1.1" id="Calque_1" xmlns="http://www.w3.org/2000/svg" xmlns:xlink="http://www.w3.org/1999/xlink" x="0px" y="0px"
	 viewBox="0 0 35.4 35.4" style="enable-background:new 0 0 35.4 35.4;" xml:space="preserve">
<path d="M18.6,3.3c-7,0-13,5-14.3,11.7c0,0.1-0.1,0.1-0.1,0.2L2,11.9l-1.7,1.1L4,18.4c0.2,0.3,0.5,0.4,0.8,0.4c0.2,0,0.3,0,0.5-0.1
	l6.3-2.6l-0.8-1.9l-4.5,1.9c0.8-6.1,6-11,12.5-11c7,0,12.6,5.7,12.6,12.6c0,6.9-5.6,12.6-12.6,12.6v2.1c8.1,0,14.6-6.6,14.6-14.7
	C33.2,9.8,26.6,3.3,18.6,3.3z"/>
</svg>
