<?xml version="1.0" encoding="utf-8"?>
<!-- Generator: Adobe Illustrator 21.1.0, SVG Export Plug-In . SVG Version: 6.00 Build 0)  -->
<svg version="1.1" id="Calque_1" xmlns="http://www.w3.org/2000/svg" xmlns:xlink="http://www.w3.org/1999/xlink" x="0px" y="0px"
	 viewBox="0 0 117.5 62.3" style="enable-background:new 0 0 117.5 62.3;" xml:space="preserve">
<style type="text/css">
	.st0{clip-path:url(#SVGID_2_);}
	.st1{fill:#3C3C3B;}
	.st2{fill:#FFFFFF;}
	.st3{fill:none;stroke:#B1B1B1;stroke-miterlimit:10;}
	.st4{fill:#FFC100;}
	.st5{fill:none;stroke:#D9D9D9;stroke-miterlimit:10;}
	.st6{fill:#1D1D1B;}
	.st7{clip-path:url(#SVGID_4_);}
	.st8{fill:none;}
	.st9{fill:none;stroke:#000000;stroke-width:2;stroke-miterlimit:10;}
	.st10{fill:#B1B1B1;}
	.st11{fill:#C6C6C5;}
	.st12{opacity:0.3;}
	.st13{fill:#E32521;}
	.st14{fill:#E20613;}
	.st15{fill:none;stroke:#B1B1B1;stroke-miterlimit:10;stroke-dasharray:1,9;}
	.st16{fill:#FFFFFF;stroke:#000000;stroke-width:2;stroke-miterlimit:10;}
	.st17{fill:url(#SVGID_5_);}
	.st18{fill:#0000FF;}
	.st19{fill:none;stroke:#FFFFFF;stroke-width:2;stroke-miterlimit:10;}
	.st20{fill:url(#SVGID_6_);}
	.st21{fill:url(#SVGID_7_);}
	.st22{clip-path:url(#SVGID_9_);}
	.st23{fill:none;stroke:#FFFFFF;stroke-miterlimit:10;}
	.st24{fill:url(#SVGID_10_);}
	.st25{fill:#FFFFFF;stroke:#B1B1B1;stroke-miterlimit:10;}
	.st26{fill:#FFFFFF;stroke:#231F20;}
	.st27{fill:none;stroke:#231F20;stroke-width:2;}
	.st28{fill:#F4CD00;}
	.st29{fill:#D9272E;}
	.st30{fill:#000A8B;}
	.st31{fill:#231F20;}
	.st32{fill:#D9D9D9;}
	.st33{fill:#EDEDED;}
	.st34{fill:#DBD9D6;}
	.st35{fill:none;stroke:#1D1D1B;stroke-width:0.5;stroke-miterlimit:10;}
	.st36{clip-path:url(#SVGID_12_);}
</style>
<g>
	<polygon points="9.2,9.9 15.5,19.7 21.8,9.9 23.4,9.9 23.2,10.2 23.2,25.8 21.7,25.8 21.7,12.6 15.5,22.3 9.2,12.6 9.2,25.8 
		7.7,25.8 7.7,10.2 7.5,9.9 	"/>
	<g>
		<path d="M39,9.9h1.5l0,11.4c-0.2,1.2-0.8,2.3-1.7,3.2c-1.1,1-2.5,1.5-4.1,1.5c-1.6,0-3-0.5-4.2-1.6c-1.1-1-1.7-2.3-1.7-3.7l0-10.8
			l1.5,0l0,10.8c0,1.1,0.4,2,1.3,2.8c0.9,0.8,1.9,1.2,3.1,1.2c1.2,0,2.2-0.4,3.1-1.2c0.9-0.8,1.3-1.7,1.3-2.8L39,9.9z"/>
		<path d="M50.1,17.2c-1.3-0.4-2.3-0.9-3-1.6C46.4,15,46,14.2,46,13.2c0-1,0.4-1.8,1.1-2.5c0.8-0.7,1.7-1,2.8-1c1.1,0,2,0.3,2.8,1
			c0.4,0.4,0.7,0.8,1,1.4l-1.3,0.5c-0.2-0.4-0.4-0.8-0.7-1c-0.5-0.4-1-0.6-1.7-0.6c-0.7,0-1.2,0.2-1.7,0.6c-0.5,0.4-0.7,0.9-0.7,1.5
			c0,0.6,0.2,1.1,0.7,1.5c0.5,0.4,1.1,0.8,1.9,1.1c1.4,0.4,2.6,1,3.6,1.9c1,0.9,1.6,2.1,1.6,3.4c0,1.3-0.5,2.5-1.6,3.4
			c-1,0.9-2.3,1.4-3.8,1.4c-1.5,0-2.7-0.5-3.8-1.4c-0.8-0.7-1.3-1.7-1.5-2.8l1.4-0.5c0.1,1,0.5,1.8,1.2,2.3c0.8,0.7,1.7,1,2.7,1
			c1.1,0,2-0.3,2.7-1c0.8-0.7,1.1-1.5,1.1-2.5c0-1-0.4-1.8-1.1-2.5C52,18.1,51.1,17.6,50.1,17.2"/>
	</g>
	<path d="M67,6.4l-3.3,2.3l-1.6,0l2.2-2.3L67,6.4z M68.5,9.9v1.3l-7.6,0l0,6l7.6,0v1.3l-7.6,0l0,6l7.6,0l0,1.3l-9.1,0l0-15.9
		L68.5,9.9z"/>
	<polygon points="82.6,9.9 82.6,11.2 75,11.2 75,17.2 82.6,17.2 82.6,18.5 75,18.5 74.9,24.5 82.6,24.5 82.6,25.8 73.5,25.8 
		73.5,9.9 	"/>
	<g>
		<path d="M92.6,18.4l0,6.7c1.2,0,2.1-0.3,2.8-0.9c0.7-0.7,1.1-1.5,1.1-2.4c0-1-0.4-1.8-1.1-2.4C94.7,18.7,93.7,18.4,92.6,18.4
			 M92.6,17.8L92.6,17.8c1.4,0,2.5,0.4,3.3,1.1c0.9,0.8,1.3,1.8,1.3,2.9c0,1.1-0.4,2.1-1.3,2.9c-0.8,0.7-2,1.1-3.4,1.1h0.1v0h-0.8
			l0-8.1L92.6,17.8L92.6,17.8z"/>
	</g>
	<polygon points="104.2,17.8 104.2,18.4 100.4,18.4 100.4,21.5 104.2,21.5 104.2,22.1 100.4,22.1 100.4,25.1 104.2,25.1 104.2,25.8 
		99.6,25.8 99.6,17.8 	"/>
	<g>
		<path d="M109,21.5c-0.6-0.2-1.1-0.5-1.5-0.8c-0.4-0.3-0.6-0.8-0.6-1.2c0-0.5,0.2-0.9,0.6-1.2c0.4-0.3,0.9-0.5,1.4-0.5
			c0.5,0,1,0.2,1.4,0.5c0.2,0.2,0.4,0.4,0.5,0.7l-0.7,0.2c-0.1-0.2-0.2-0.4-0.3-0.5c-0.2-0.2-0.5-0.3-0.9-0.3
			c-0.3,0-0.6,0.1-0.9,0.3c-0.2,0.2-0.4,0.5-0.4,0.8c0,0.3,0.1,0.6,0.4,0.8c0.2,0.2,0.6,0.4,1,0.6c0.7,0.2,1.3,0.5,1.8,1
			c0.5,0.5,0.8,1,0.8,1.7c0,0.7-0.3,1.3-0.8,1.7c-0.5,0.5-1.2,0.7-1.9,0.7c-0.7,0-1.4-0.2-1.9-0.7c-0.4-0.4-0.7-0.9-0.8-1.4l0.7-0.2
			c0.1,0.5,0.3,0.9,0.6,1.2c0.4,0.3,0.8,0.5,1.4,0.5c0.5,0,1-0.2,1.4-0.5c0.4-0.3,0.6-0.8,0.6-1.3c0-0.5-0.2-0.9-0.6-1.2
			C109.9,21.9,109.5,21.7,109,21.5"/>
		<path d="M8.7,31.9l0,2.6h1.5c0.4,0,0.7-0.2,0.9-0.4c0.3-0.2,0.4-0.5,0.4-0.9c0-0.4-0.1-0.7-0.4-0.9c-0.3-0.2-0.6-0.4-1.1-0.4H8.7z
			 M8.7,35.6l0,6.2h1.8c0.7,0,1.4-0.3,2-0.9c0.7-0.6,1-1.4,1-2.2c0-0.9-0.3-1.6-1-2.2c-0.7-0.6-1.5-0.9-2.4-0.9H8.7z M10.1,30.9
			c0.7,0,1.3,0.2,1.8,0.7c0.5,0.5,0.7,1,0.7,1.6c0,0.7-0.3,1.2-0.8,1.6c0.4,0.1,0.9,0.4,1.4,0.9c0.9,0.8,1.3,1.8,1.3,2.9
			c0,1.1-0.4,2.1-1.3,3c-0.8,0.8-1.8,1.2-2.8,1.2v0l-2.9,0l0-11.9H10.1z"/>
	</g>
	<polygon points="24.8,30.9 24.8,31.9 19.1,31.9 19.1,36.4 24.8,36.4 24.8,37.4 19.1,37.4 19.1,41.8 24.8,41.8 24.8,42.8 18,42.8 
		18,30.9 	"/>
	<path d="M34.4,37.4l-1.7-4.2L31,37.4L34.4,37.4z M34.8,38.4l-4.2,0l-1.8,4.4h-1.2l5.1-12.5l5,12.5l-1.2,0L34.8,38.4z"/>
	<g>
		<path d="M48.1,30.9h1.1l0,8.5c-0.1,0.9-0.6,1.7-1.3,2.4c-0.9,0.8-1.9,1.2-3.1,1.2c-1.2,0-2.2-0.4-3.1-1.2
			c-0.9-0.8-1.3-1.7-1.3-2.8l0-8h1.1l0,8c0,0.8,0.3,1.5,1,2.1c0.6,0.6,1.4,0.9,2.3,0.9c0.9,0,1.7-0.3,2.3-0.9c0.6-0.6,1-1.3,1-2.1
			L48.1,30.9z"/>
	</g>
	<polygon points="52.3,42.8 56.5,36.3 53,30.9 54.3,30.9 57.1,35.3 59.9,31 61.2,31 57.7,36.3 61.9,42.8 60.6,42.8 57.1,37.3 
		53.6,42.8 	"/>
	<rect x="64.1" y="37.9" width="5.1" height="1"/>
	<path d="M78.5,37.4l-1.7-4.2l-1.7,4.2L78.5,37.4z M78.9,38.4l-4.2,0L73,42.8h-1.2l5.1-12.5l5,12.5l-1.2,0L78.9,38.4z"/>
	<g>
		<path d="M86.1,32l0,5.9l2,0c0.9,0,1.7-0.3,2.3-0.9c0.6-0.6,1-1.3,1-2.1c0-0.8-0.3-1.5-1-2.1C89.7,32.2,88.9,32,88,32L86.1,32z
			 M88,38.8h-2v4H85L85,31h3.6c1,0.1,1.9,0.5,2.6,1.2c0.9,0.8,1.3,1.7,1.3,2.8c0,1.1-0.4,2-1.3,2.8c-0.6,0.5-1.2,0.9-1.8,1l3,4.2H91
			L88,38.8z"/>
	</g>
	<polygon points="99.1,32 99.1,42.8 98,42.8 98,32 94.8,32 94.8,31 102.4,31 102.4,32 	"/>
	<g>
		<path d="M108.7,36.4c-0.9-0.3-1.7-0.7-2.2-1.2c-0.6-0.5-0.8-1.1-0.8-1.8c0-0.7,0.3-1.3,0.8-1.8c0.6-0.5,1.3-0.8,2.1-0.8
			c0.8,0,1.5,0.3,2.1,0.8c0.3,0.3,0.6,0.6,0.7,1.1l-1,0.4c-0.1-0.3-0.3-0.6-0.5-0.8c-0.3-0.3-0.8-0.5-1.3-0.5
			c-0.5,0-0.9,0.2-1.3,0.5c-0.4,0.3-0.5,0.7-0.5,1.2c0,0.4,0.2,0.8,0.5,1.1c0.3,0.3,0.8,0.6,1.4,0.8c1,0.3,1.9,0.8,2.7,1.4
			c0.8,0.7,1.2,1.5,1.2,2.5c0,1-0.4,1.8-1.2,2.5c-0.8,0.7-1.7,1-2.8,1c-1.1,0-2-0.4-2.8-1.1c-0.6-0.6-1-1.3-1.1-2.1l1.1-0.3
			c0.1,0.7,0.4,1.3,0.9,1.7c0.6,0.5,1.3,0.8,2,0.8c0.8,0,1.5-0.3,2-0.8c0.6-0.5,0.8-1.1,0.8-1.9c0-0.7-0.3-1.3-0.8-1.8
			C110.1,37.1,109.5,36.7,108.7,36.4"/>
		<path d="M8,48.8l0,7.2c1.3,0,2.3-0.3,3-1c0.8-0.7,1.2-1.6,1.2-2.6c0-1-0.4-1.9-1.2-2.6C10.3,49.1,9.3,48.8,8,48.8 M8,48H7.9
			c1.6,0,2.8,0.4,3.7,1.2c1,0.9,1.4,1.9,1.4,3.1c0,1.2-0.5,2.3-1.4,3.1c-0.9,0.8-2.1,1.2-3.7,1.2H8v0H7.2l0-8.6L8,48L8,48z"/>
	</g>
	<polygon points="20.5,48 20.5,48.7 16.4,48.7 16.4,52 20.5,52 20.5,52.7 16.4,52.7 16.4,55.9 20.5,55.9 20.5,56.7 15.6,56.7 
		15.6,48 	"/>
	<g>
		<path d="M31.1,52c-0.7-0.2-1.2-0.5-1.6-0.9c-0.4-0.4-0.6-0.8-0.6-1.3c0-0.5,0.2-1,0.6-1.3c0.4-0.4,0.9-0.6,1.5-0.6
			c0.6,0,1.1,0.2,1.5,0.6c0.2,0.2,0.4,0.5,0.5,0.8l-0.7,0.3c-0.1-0.2-0.2-0.4-0.4-0.5c-0.3-0.2-0.6-0.3-0.9-0.3
			c-0.4,0-0.7,0.1-0.9,0.3c-0.3,0.2-0.4,0.5-0.4,0.8c0,0.3,0.1,0.6,0.4,0.8c0.2,0.2,0.6,0.4,1,0.6c0.8,0.2,1.4,0.6,1.9,1
			c0.6,0.5,0.8,1.1,0.8,1.8c0,0.7-0.3,1.3-0.9,1.9c-0.6,0.5-1.3,0.8-2,0.8c-0.8,0-1.5-0.3-2.1-0.8c-0.5-0.4-0.7-0.9-0.8-1.5l0.8-0.3
			c0.1,0.5,0.3,1,0.6,1.3c0.4,0.4,0.9,0.6,1.5,0.6c0.6,0,1.1-0.2,1.5-0.6c0.4-0.4,0.6-0.8,0.6-1.3c0-0.5-0.2-1-0.6-1.3
			C32.1,52.5,31.6,52.2,31.1,52"/>
	</g>
	<polygon points="36.9,52.9 36.9,56.7 36.1,56.7 36.1,48 36.9,48 36.9,52.2 40.5,52.2 40.5,48 41.3,48 41.3,56.7 40.5,56.7 
		40.5,52.9 	"/>
	<polygon points="49.2,48 49.2,48.7 45,48.7 45,52 49.2,52 49.2,52.7 45,52.7 45,55.9 49.2,55.9 49.2,56.7 44.2,56.7 44.2,48 	"/>
	<g>
		<path d="M52.7,48.7l0,4.3l1.4,0c0.7,0,1.2-0.2,1.7-0.6c0.5-0.4,0.7-0.9,0.7-1.5c0-0.6-0.2-1.1-0.7-1.5c-0.5-0.4-1-0.6-1.7-0.6
			H52.7z M54.1,53.8h-1.4v2.9h-0.8l0-8.6l2.6,0c0.7,0.1,1.4,0.4,1.9,0.8c0.6,0.6,0.9,1.2,0.9,2c0,0.8-0.3,1.5-0.9,2
			c-0.4,0.4-0.9,0.6-1.3,0.7l2.2,3h-1L54.1,53.8z"/>
		<path d="M60.4,48.7v1.9h1.1c0.3,0,0.5-0.1,0.7-0.3c0.2-0.2,0.3-0.4,0.3-0.7c0-0.3-0.1-0.5-0.3-0.7c-0.2-0.2-0.5-0.3-0.8-0.3H60.4z
			 M60.4,51.4v4.6h1.3c0.5,0,1-0.3,1.4-0.7c0.5-0.5,0.7-1,0.7-1.6c0-0.6-0.2-1.2-0.7-1.6c-0.5-0.4-1.1-0.7-1.8-0.7H60.4z M61.4,48
			c0.5,0,0.9,0.2,1.3,0.5c0.4,0.3,0.5,0.7,0.5,1.2c0,0.5-0.2,0.9-0.6,1.1c0.3,0.1,0.6,0.3,1,0.7c0.6,0.6,1,1.3,1,2.1
			c0,0.8-0.3,1.5-1,2.1c-0.6,0.6-1.3,0.8-2,0.9v0h-2.1l0-8.6H61.4z"/>
		<path d="M68,48.8l0,4.3l1.4,0c0.7,0,1.2-0.2,1.7-0.6c0.5-0.4,0.7-0.9,0.7-1.5c0-0.6-0.2-1.1-0.7-1.5c-0.5-0.4-1-0.6-1.7-0.6H68z
			 M69.4,53.8H68l0,2.9h-0.8l0-8.6l2.6,0c0.7,0.1,1.4,0.4,1.9,0.8c0.6,0.6,0.9,1.2,0.9,2c0,0.8-0.3,1.5-0.9,2
			c-0.4,0.4-0.9,0.6-1.3,0.7l2.2,3h-1L69.4,53.8z"/>
		<path d="M79.6,48.6c-1.1,0-2.1,0.4-2.9,1.1c-0.8,0.7-1.2,1.6-1.2,2.6s0.4,1.9,1.2,2.6c0.8,0.7,1.8,1.1,2.9,1.1
			c1.1,0,2.1-0.4,2.9-1.1c0.8-0.7,1.2-1.6,1.2-2.6c0-1-0.4-1.9-1.2-2.6C81.7,49,80.8,48.6,79.6,48.6 M83.1,49.2
			c1,0.9,1.4,1.9,1.4,3.1c0,1.2-0.5,2.3-1.4,3.1c-1,0.9-2.1,1.3-3.5,1.3c-1.4,0-2.5-0.4-3.5-1.3c-1-0.9-1.4-1.9-1.4-3.1
			c0-1.2,0.5-2.3,1.4-3.1c1-0.9,2.1-1.3,3.5-1.3C81,47.9,82.2,48.3,83.1,49.2"/>
		<path d="M92,48.6c-1.1,0-2.1,0.4-2.9,1.1c-0.8,0.7-1.2,1.6-1.2,2.6c0,1,0.4,1.9,1.2,2.6c0.8,0.7,1.8,1.1,2.9,1.1
			c1.1,0,2.1-0.4,2.9-1.1c0.8-0.7,1.2-1.6,1.2-2.6c0-1-0.4-1.9-1.2-2.6C94.2,49,93.2,48.6,92,48.6 M95.5,49.2c1,0.9,1.4,1.9,1.4,3.1
			c0,1.2-0.5,2.3-1.4,3.1c-1,0.9-2.1,1.3-3.5,1.3c-1.4,0-2.5-0.4-3.5-1.3c-1-0.9-1.4-1.9-1.4-3.1c0-1.2,0.5-2.3,1.4-3.1
			c1-0.9,2.1-1.3,3.5-1.3C93.4,47.9,94.6,48.3,95.5,49.2"/>
	</g>
	<polygon points="100.5,52.5 100.5,56.7 99.7,56.7 99.7,48 100.5,48 100.5,51.4 103.3,48 104.3,48 101.4,51.5 105.1,56.7 
		104.1,56.7 100.9,52.1 	"/>
	<polygon points="112.5,48 112.5,48.8 108.4,48.8 108.4,52 112.5,52 112.5,52.7 108.4,52.7 108.4,56 112.5,56 112.5,56.7 
		107.6,56.7 107.6,48 	"/>
</g>
</svg>
