<?xml version="1.0" encoding="utf-8"?>
<!-- Generator: Adobe Illustrator 21.1.0, SVG Export Plug-In . SVG Version: 6.00 Build 0)  -->
<svg version="1.1" id="Calque_1" xmlns="http://www.w3.org/2000/svg" xmlns:xlink="http://www.w3.org/1999/xlink" x="0px" y="0px"
	 viewBox="0 0 31.3 34.3" style="enable-background:new 0 0 31.3 34.3;" xml:space="preserve">
<style type="text/css">
	.st0{clip-path:url(#SVGID_2_);}
	.st1{fill:#3C3C3B;}
	.st2{fill:#FFFFFF;}
	.st3{fill:none;stroke:#B1B1B1;stroke-miterlimit:10;}
	.st4{fill:#FFC100;}
	.st5{fill:none;stroke:#D9D9D9;stroke-miterlimit:10;}
	.st6{fill:#1D1D1B;}
	.st7{clip-path:url(#SVGID_4_);}
	.st8{fill:none;}
	.st9{fill:none;stroke:#000000;stroke-width:2;stroke-miterlimit:10;}
	.st10{fill:#B1B1B1;}
	.st11{fill:#C6C6C5;}
	.st12{opacity:0.3;}
	.st13{fill:#E32521;}
	.st14{fill:#E20613;}
	.st15{fill:none;stroke:#B1B1B1;stroke-miterlimit:10;stroke-dasharray:1,9;}
	.st16{fill:#FFFFFF;stroke:#000000;stroke-width:2;stroke-miterlimit:10;}
	.st17{fill:url(#SVGID_5_);}
	.st18{fill:#0000FF;}
	.st19{fill:none;stroke:#FFFFFF;stroke-width:2;stroke-miterlimit:10;}
	.st20{fill:url(#SVGID_6_);}
	.st21{fill:url(#SVGID_7_);}
	.st22{clip-path:url(#SVGID_9_);}
	.st23{fill:none;stroke:#FFFFFF;stroke-miterlimit:10;}
	.st24{fill:url(#SVGID_10_);}
	.st25{fill:#FFFFFF;stroke:#B1B1B1;stroke-miterlimit:10;}
	.st26{fill:#FFFFFF;stroke:#231F20;}
	.st27{fill:none;stroke:#231F20;stroke-width:2;}
	.st28{fill:#F4CD00;}
	.st29{fill:#D9272E;}
	.st30{fill:#000A8B;}
	.st31{fill:#231F20;}
	.st32{fill:#D9D9D9;}
	.st33{fill:#EDEDED;}
	.st34{fill:#DBD9D6;}
	.st35{fill:none;stroke:#1D1D1B;stroke-width:0.5;stroke-miterlimit:10;}
	.st36{clip-path:url(#SVGID_12_);}
</style>
<path d="M27.7,31.5L22,23.6c2.6-2.3,4-5.5,4-9l0.1,0l-0.1-1l-0.1-1l-0.1,0c-0.3-1.7-1-3.3-2-4.6c-1.8-2.5-4.5-4.2-7.6-4.6
	C13.5,3,10.7,3.5,8.4,4.9l0,0L7.6,5.5L6.8,6.1l0,0c-2.1,1.8-3.4,4.2-3.9,7c-0.5,3.1,0.3,6.1,2.1,8.6c1,1.4,2.3,2.5,3.8,3.3l0,0.1
	l0.9,0.4c0,0,0,0,0,0l0.9,0.4l0,0c1.2,0.4,2.5,0.6,3.8,0.6c2.1,0,4.2-0.6,6-1.7l5.7,7.8L27.7,31.5z M9.6,6.6
	c1.9-1.1,4.1-1.5,6.3-1.2c2.5,0.4,4.8,1.8,6.3,3.8c0.8,1.1,1.3,2.3,1.6,3.7l-8.9,1L12,9.9L9.6,6.6z M6.6,20.5
	c-1.5-2.1-2.1-4.6-1.7-7.2C5.2,11.2,6.3,9.2,8,7.7l2.5,3.4l2.8,3.9l-3.6,8.2C8.4,22.5,7.4,21.6,6.6,20.5z M11.4,24l2.8-6.4l0.8-1.8
	l8.9-1c0,3.1-1.5,6-3.9,7.8C17.6,24.5,14.4,25,11.4,24z"/>
</svg>
