<svg id="Calque_1" data-name="Calque 1" xmlns="http://www.w3.org/2000/svg" viewBox="0 0 43.13 43.13"><defs><style>.cls-1{fill:#01b900;}</style></defs><title>coma_icone-vert</title><path class="cls-1" d="M24.35,3.77A21.56,21.56,0,1,0,45.92,25.33,21.59,21.59,0,0,0,24.35,3.77Zm0,10.56A11,11,0,0,1,33.2,18.8l-8.82,4.93-8.86-4.95A11,11,0,0,1,24.35,14.33Zm-11,11A11,11,0,0,1,14,21.58l8.75,4.89v9.75A11,11,0,0,1,13.35,25.33Zm12.59,1.16L34.7,21.6a11,11,0,0,1-8.76,14.62ZM22.77,7v4.24A14.16,14.16,0,0,0,11.45,31.18L7.76,33.26A18.38,18.38,0,0,1,22.77,7Zm1.59,36.71A18.38,18.38,0,0,1,9.37,36l3.7-2.08a14.15,14.15,0,0,0,22.53,0L39.31,36A18.38,18.38,0,0,1,24.35,43.73Z" transform="translate(-2.79 -3.77)"/></svg>