<?xml version="1.0" encoding="utf-8"?>
<!-- Generator: Adobe Illustrator 21.1.0, SVG Export Plug-In . SVG Version: 6.00 Build 0)  -->
<svg version="1.1" id="Calque_1" xmlns="http://www.w3.org/2000/svg" xmlns:xlink="http://www.w3.org/1999/xlink" x="0px" y="0px"
	 viewBox="0 0 49 47.3" style="enable-background:new 0 0 49 47.3;" xml:space="preserve">
<style type="text/css">
	.st0{clip-path:url(#SVGID_2_);}
	.st1{fill:#3C3C3B;}
	.st2{fill:#FFFFFF;}
	.st3{fill:none;stroke:#B1B1B1;stroke-miterlimit:10;}
	.st4{fill:#FFC100;}
	.st5{fill:none;stroke:#D9D9D9;stroke-miterlimit:10;}
	.st6{fill:#1D1D1B;}
	.st7{clip-path:url(#SVGID_4_);}
	.st8{fill:none;}
	.st9{fill:none;stroke:#000000;stroke-width:2;stroke-miterlimit:10;}
	.st10{fill:#B1B1B1;}
	.st11{fill:#C6C6C5;}
	.st12{opacity:0.3;}
	.st13{fill:#E32521;}
	.st14{fill:#E20613;}
	.st15{fill:none;stroke:#B1B1B1;stroke-miterlimit:10;stroke-dasharray:1,9;}
	.st16{fill:#FFFFFF;stroke:#000000;stroke-width:2;stroke-miterlimit:10;}
	.st17{fill:url(#SVGID_5_);}
	.st18{fill:#0000FF;}
	.st19{fill:none;stroke:#FFFFFF;stroke-width:2;stroke-miterlimit:10;}
	.st20{fill:url(#SVGID_6_);}
	.st21{fill:url(#SVGID_7_);}
	.st22{clip-path:url(#SVGID_9_);}
	.st23{fill:none;stroke:#FFFFFF;stroke-miterlimit:10;}
	.st24{fill:url(#SVGID_10_);}
	.st25{fill:#FFFFFF;stroke:#B1B1B1;stroke-miterlimit:10;}
	.st26{fill:#FFFFFF;stroke:#231F20;}
	.st27{fill:none;stroke:#231F20;stroke-width:2;}
	.st28{fill:#F4CD00;}
	.st29{fill:#D9272E;}
	.st30{fill:#000A8B;}
	.st31{fill:#231F20;}
	.st32{fill:#D9D9D9;}
	.st33{fill:#EDEDED;}
	.st34{fill:#DBD9D6;}
	.st35{fill:none;stroke:#1D1D1B;stroke-width:0.5;stroke-miterlimit:10;}
	.st36{clip-path:url(#SVGID_12_);}
</style>
<path class="st6" d="M24.3,2.4C12.3,2.4,2.6,12.1,2.6,24c0,11.9,9.7,21.7,21.7,21.7c11.9,0,21.7-9.7,21.7-21.7
	C45.9,12.1,36.2,2.4,24.3,2.4z M7.6,32c-1.2-2.4-1.8-5.1-1.8-8c0-9.6,7.4-17.6,16.9-18.4v4.3C15.6,10.7,10,16.7,10,24
	c0,2.1,0.5,4.1,1.3,5.9L7.6,32z M24.3,42.5c-6.2,0-11.7-3.1-15-7.8l3.7-2.1c2.6,3.4,6.7,5.6,11.3,5.6c4.6,0,8.7-2.2,11.3-5.6
	l3.7,2.1C35.9,39.5,30.4,42.5,24.3,42.5z M37.2,30c0.8-1.8,1.3-3.8,1.3-5.9c0-7.3-5.5-13.3-12.6-14.1V5.7
	c9.4,0.8,16.9,8.7,16.9,18.4c0,2.9-0.7,5.6-1.8,8L37.2,30z"/>
</svg>
