<?xml version="1.0" encoding="utf-8"?>
<!-- Generator: Adobe Illustrator 21.1.0, SVG Export Plug-In . SVG Version: 6.00 Build 0)  -->
<svg version="1.1" id="Calque_1" xmlns="http://www.w3.org/2000/svg" xmlns:xlink="http://www.w3.org/1999/xlink" x="0px" y="0px"
	 viewBox="0 0 188.1 81.1" style="enable-background:new 0 0 188.1 81.1;" xml:space="preserve">
<style type="text/css">
	.st0{clip-path:url(#SVGID_2_);}
	.st1{fill:#3C3C3B;}
	.st2{fill:#FFFFFF;}
	.st3{fill:none;stroke:#B1B1B1;stroke-miterlimit:10;}
	.st4{fill:#FFC100;}
	.st5{fill:none;stroke:#D9D9D9;stroke-miterlimit:10;}
	.st6{fill:#1D1D1B;}
	.st7{clip-path:url(#SVGID_4_);}
	.st8{fill:none;}
	.st9{fill:none;stroke:#000000;stroke-width:2;stroke-miterlimit:10;}
	.st10{fill:#B1B1B1;}
	.st11{fill:#C6C6C5;}
	.st12{opacity:0.3;}
	.st13{fill:#E32521;}
	.st14{fill:#E20613;}
	.st15{fill:none;stroke:#B1B1B1;stroke-miterlimit:10;stroke-dasharray:1,9;}
	.st16{fill:#FFFFFF;stroke:#000000;stroke-width:2;stroke-miterlimit:10;}
	.st17{fill:url(#SVGID_5_);}
	.st18{fill:#0000FF;}
	.st19{fill:none;stroke:#FFFFFF;stroke-width:2;stroke-miterlimit:10;}
	.st20{fill:url(#SVGID_6_);}
	.st21{fill:url(#SVGID_7_);}
	.st22{clip-path:url(#SVGID_9_);}
	.st23{fill:none;stroke:#FFFFFF;stroke-miterlimit:10;}
	.st24{fill:url(#SVGID_10_);}
	.st25{fill:#FFFFFF;stroke:#B1B1B1;stroke-miterlimit:10;}
	.st26{fill:#FFFFFF;stroke:#231F20;}
	.st27{fill:none;stroke:#231F20;stroke-width:2;}
	.st28{fill:#F4CD00;}
	.st29{fill:#D9272E;}
	.st30{fill:#000A8B;}
	.st31{fill:#231F20;}
	.st32{fill:#D9D9D9;}
	.st33{fill:#EDEDED;}
	.st34{fill:#DBD9D6;}
	.st35{fill:none;stroke:#1D1D1B;stroke-width:0.5;stroke-miterlimit:10;}
	.st36{clip-path:url(#SVGID_12_);}
</style>
<g>
	<rect x="93.7" y="-16.3" transform="matrix(-1.836970e-16 1 -1 -1.836970e-16 167.1906 -22.2009)" width="1.9" height="177.7"/>
	<g>
		<path class="st8" d="M87.4,21.5l3.2,0l-0.1-0.7c-0.1-1.6-0.3-2.7-0.7-3.6c-0.4-0.9-0.8-1.3-1.3-1.3c-0.4,0-0.7,0.2-1,0.7
			c-0.2,0.5-0.4,1.2-0.4,2.1c0,0.7,0,1.1,0.1,1.7C87.4,21,87.3,21.1,87.4,21.5z"/>
		<path class="st8" d="M35.3,16.4c-0.4,0-0.6,0.3-0.8,1c-0.2,0.6-0.2,1.2-0.2,2.4c0,2.7,0.3,5.3,0.9,8c0.6,2.6,1.3,3.6,1.9,3.6
			c0.4,0,0.6-0.3,0.8-1c0.2-0.6,0.2-1.3,0.2-2.5c0-2.7-0.3-5.3-0.9-8C36.6,17.4,36,16.4,35.3,16.4z"/>
		<path d="M17.2,33c1.5,0,2.8-0.1,3.9-0.4c1.1-0.2,2.1-0.6,2.9-1.1c0.1-1,0.3-2.2,0.4-3.4c0.2-1.2,0.4-2.5,0.7-3.9l-0.9-0.2
			l-0.5,1.1c-1.4,2.9-2.3,4.6-2.8,5.2c-0.5,0.6-1.1,0.9-1.8,0.9c-0.8,0-1.7-0.5-2.5-1.5c-0.8-1-1.5-2.4-2.1-4.1
			c-0.3-1.1-0.6-2.3-0.8-3.6c-0.2-1.3-0.3-2.6-0.3-3.9c0-2.5,0.3-4.5,0.9-5.8c0.6-1.4,1.4-2.1,2.4-2.1c0.9,0,1.8,0.5,2.7,1.4
			c0.9,1,2,2.7,3.2,5.1l0.6,1.1l0.9-0.1c-0.2-1.8-0.3-3.3-0.3-4.3c0-1-0.1-2,0-2.9c-0.8-0.5-1.7-0.8-2.9-1.1C19.6,9.1,18.4,9,17.2,9
			c-3.7,0-6.7,1.1-9.1,3.3c-2.4,2.2-3.5,4.9-3.5,8.3c0,3.8,1.2,6.8,3.5,9.1C10.4,31.9,13.4,33,17.2,33z"/>
		<path d="M45.8,23.8c0-2.7-0.9-4.9-2.6-6.5c-1.7-1.7-4-2.5-6.9-2.5c-2.9,0-5.2,0.9-7.1,2.6c-1.9,1.7-2.8,3.9-2.8,6.6
			c0,2.7,0.9,4.9,2.6,6.5c1.7,1.7,4,2.5,6.9,2.5c2.9,0,5.2-0.8,7.1-2.5C44.9,28.8,45.8,26.5,45.8,23.8z M37.8,30.5
			c-0.2,0.6-0.4,1-0.8,1c-0.7,0-1.3-1-1.9-3.6c-0.6-2.6-0.9-5.3-0.9-8c0-1.2,0.1-1.8,0.2-2.4c0.2-0.6,0.4-1,0.8-1
			c0.7,0,1.3,0.9,1.9,3.5c0.6,2.6,0.9,5.3,0.9,8C38,29.1,38,29.8,37.8,30.5z"/>
		<path d="M79.5,31.4l-0.6-0.1c-0.3-0.1-0.5-0.3-0.6-0.8c-0.1-0.5-0.1-1.8-0.1-4V14.7c0-1.2,0-2.5,0-3.8c0-1.3,0.1-2.3,0.1-3.1
			l-0.3-0.3c-1.2,0.2-2.4,0.4-3.7,0.5c-1.3,0.1-3,0.2-5.2,0.2v1l0.3,0.1c0.5,0.1,0.8,0.4,0.9,1c0.1,0.5,0.2,2.3,0.2,5.2v10.9
			c0,2.2,0,3.5-0.1,4c-0.1,0.5-0.3,0.7-0.6,0.8L69,31.4v0.9c4.7,0,8.4,0.1,10.4,0.1V31.4z"/>
		<path d="M88.9,33c1.9,0,3.5-0.5,5-1.6c1.4-1.1,2.6-2.7,3.7-5L97,25.9c-0.7,0.6-1.4,1.1-2,1.3c-0.6,0.3-1.3,0.4-2.1,0.4
			c-1.2,0-2.3-0.4-3.1-1.2c-0.9-0.8-1.6-1.9-2-3.4h9.1c0-0.2,0-0.5,0.1-0.8c0-0.3,0-0.5,0-0.7c0-1.9-0.7-3.5-2-4.8
			c-1.4-1.3-3.1-2-5.3-2c-2.5,0-4.7,0.9-6.5,2.6c-1.8,1.8-2.7,3.9-2.7,6.5c0,2.7,0.8,4.8,2.4,6.5C84.4,32.1,86.4,33,88.9,33z
			 M87.3,18.7c0-0.9,0.1-1.6,0.4-2.1c0.2-0.5,0.6-0.7,1-0.7c0.5,0,0.9,0.4,1.3,1.3c0.4,0.9,0.6,2,0.7,3.6l0.1,0.7l-3.2,0
			c-0.1-0.5-0.1-0.5-0.1-1.1C87.3,19.8,87.3,19.4,87.3,18.7z"/>
		<path d="M118.9,32.3l0-1.8l-0.6-0.2c-0.3-0.1-0.5-0.4-0.6-1c-0.1-0.6-0.1-2-0.1-4.3v-3.2c0-1.2,0-2.5,0-3.8c0-1.3,0.1-2.3,0.1-3.1
			l-0.3-0.3c-1.2,0.2-2.4,0.4-3.7,0.5c-1.3,0.1-3,0.2-5.2,0.2v1l0.3,0.1c0.5,0.1,0.8,0.4,0.9,1c0.1,0.5,0.2,2.3,0.2,5.2v5.7
			c-0.2,0.2-0.4,0.4-0.6,0.5c-0.2,0.1-0.4,0.2-0.7,0.2c-0.6,0-1-0.3-1.2-0.8c-0.3-0.5-0.4-1.3-0.4-2.3V22c0-1.2,0-2.5,0-3.9
			c0-1.3,0.1-2.4,0.1-3.1l-0.3-0.3c-1.2,0.2-2.4,0.4-3.7,0.5c-1.3,0.1-3,0.2-5.2,0.2v1l0.3,0.1c0.5,0.1,0.8,0.4,0.9,1
			c0.1,0.5,0.2,2.3,0.2,5.2v4.4c0,1.9,0.5,3.3,1.4,4.3c0.9,1,2.2,1.5,3.9,1.5c1.3,0,2.4-0.3,3.3-0.9c0.9-0.6,1.7-1.5,2.2-2.6
			c0,0.6,0.1,1.2,0.2,1.8c0.1,0.4,0.2,1,0.2,1l0.3,0c0,0,0.1,0,0.1,0C113.7,32.3,116.4,32.3,118.9,32.3z"/>
		<path d="M67.3,32.3l0-1.8l-0.6-0.2c-0.3-0.1-0.5-0.4-0.6-1c-0.1-0.6-0.1-2-0.1-4.3v-3.2c0-1.2,0-2.5,0-3.8c0-1.3,0.1-2.3,0.1-3.1
			l-0.3-0.3c-1.2,0.2-2.4,0.4-3.7,0.5c-1.3,0.1-3,0.2-5.2,0.2v1l0.3,0.1c0.5,0.1,0.8,0.4,0.9,1c0.1,0.5,0.2,2.3,0.2,5.2v5.7
			c-0.2,0.2-0.4,0.4-0.6,0.5c-0.2,0.1-0.4,0.2-0.7,0.2c-0.6,0-1-0.3-1.2-0.8c-0.3-0.5-0.4-1.3-0.4-2.3V22c0-1.2,0-2.5,0-3.9
			c0-1.3,0.1-2.4,0.1-3.1l-0.3-0.3c-1.2,0.2-2.4,0.4-3.7,0.5c-1.3,0.1-3,0.2-5.2,0.2v1l0.3,0.1c0.5,0.1,0.8,0.4,0.9,1
			c0.1,0.5,0.2,2.3,0.2,5.2v4.4c0,1.9,0.5,3.3,1.4,4.3c0.9,1,2.2,1.5,3.9,1.5c1.3,0,2.4-0.3,3.3-0.9c0.9-0.6,1.7-1.5,2.2-2.6
			c0,0.6,0.1,1.2,0.2,1.8c0.1,0.4,0.2,1,0.2,1l1.4,0c0.1,0,0.2,0,0.4,0C62.9,32.3,65.2,32.3,67.3,32.3z"/>
		<path d="M149.1,21.1c-1.9-1-3.1-1.7-3.8-2.3c-0.7-0.6-1-1.2-1-1.7c0-0.4,0.1-0.7,0.3-0.9c0.2-0.2,0.5-0.3,0.9-0.3
			c0.8,0,1.8,0.4,2.8,1.3c1,0.9,2,2,3,3.5h0.8c0-0.6-0.1-1.3-0.1-2.1c0-0.8,0-1.5,0-2.2c-0.9-0.6-1.8-1-2.8-1.3
			c-0.9-0.3-2-0.4-3.1-0.4c-2.3,0-4.2,0.5-5.6,1.6c-1.4,1.1-2.1,2.5-2.1,4.2c0,1.1,0.3,2.1,0.9,3c0.6,0.9,1.6,1.7,3,2.5
			c2.3,1.3,3.8,2.3,4.3,2.8c0.6,0.6,0.8,1.1,0.8,1.7c0,0.4-0.1,0.6-0.4,0.8c-0.3,0.2-0.7,0.3-1.2,0.3c-1,0-2.1-0.4-3.2-1.3
			c-1.1-0.8-2.2-2.1-3.3-3.8h-0.8c0,0.9,0.1,1.7,0.1,2.5c0,0.8,0,1.5-0.1,2.3c1.2,0.5,2.4,0.9,3.5,1.1c1.1,0.2,2.2,0.4,3.3,0.4
			c2.6,0,4.7-0.5,6.1-1.5c1.5-1,2.2-2.5,2.2-4.3c0-1.3-0.4-2.4-1.1-3.4C151.8,22.8,150.6,21.9,149.1,21.1z"/>
		<path d="M136.7,15.7c-0.6-0.6-1.3-0.9-2.1-0.9c-0.1,0-0.2,0-0.3,0c0,0,0,0,0,0c0,0,0,0,0,0c-0.9,0-1.7,0.3-2.3,0.8
			c-0.2,0.2-0.5,0.4-0.7,0.7c-0.8,0.9-1.4,2.5-2,4.7c0-0.8,0-1.8,0-2.9c0-1.1,0.1-2.1,0.1-2.9l-0.3-0.3c-1.2,0.2-2.4,0.4-3.7,0.5
			c-1.3,0.1-3,0.2-5.2,0.2v1l0.3,0.1c0.5,0.1,0.8,0.4,0.9,1c0.1,0.5,0.2,2.3,0.2,5.2v3.8c0,0.2,0,0.7,0,1.3c0,0.7,0,1.1,0,1.4
			c0,0.8-0.1,1.3-0.2,1.6c-0.1,0.3-0.4,0.4-0.9,0.6l-0.3,0.1v0.9c6.9,0,11.3,0.1,11.3,0.1v-1l-0.6-0.2c-0.8-0.2-1.2-0.6-1.4-1.1
			c-0.2-0.5-0.3-1.7-0.3-3.7v-4c0.3-0.8,0.7-1.4,1.2-1.8c0.3-0.2,0.6-0.3,0.9-0.4c0.1,0.1,0.2,0.2,0.3,0.3c0.7,0.6,1.5,1,2.5,1
			c1,0,1.9-0.3,2.6-0.9c0.7-0.6,1-1.4,1-2.4C137.7,17.1,137.4,16.4,136.7,15.7z"/>
	</g>
	<g>
		<path class="st8" d="M44.2,53.3c-0.4,0.4-0.5,0.9-0.6,1.7c0,0.6,0.1,1.5,0.5,2c0.6,0.7,2,0.5,2.4,0.2v-4.4
			C46.6,52.7,45.2,52.2,44.2,53.3z"/>
		<path d="M26.5,38.1l-4.8,13.6l-5.6-13.6c-1.6,0.1-3.3,0.1-4.9,0.1c-1.7,0-3.3,0-4.9-0.1v1l0.5,0.4c0.5,0.3,0.8,0.7,1,1.2
			c0.2,0.5,0.3,1.1,0.3,1.9v8.2c0,1,0,2,0,2.8C8,54.3,8,55,8,55.6c-0.1,1.4-0.2,2.4-0.5,3c-0.2,0.6-0.6,1-1.2,1.2L5.8,60v1
			C6.8,61,8.3,61,9.6,61c1.3,0,2.4,0,3.5,0.1v-1l-0.4-0.1c-1.1-0.3-1.8-1.2-2.2-2.5c-0.4-1.3-0.6-3.5-0.6-6.6l0-7.1l6.6,16.1
			c0.6,0,1.2-0.1,1.9-0.1c0.6,0,1.2,0,1.9,0.1l6.1-17.1v12.4c0,2.2,0,3.5-0.1,4c-0.1,0.5-0.3,0.7-0.6,0.8L25,60v1
			c1.6-0.1,3.4-0.1,5.4-0.1c1.9,0,3.7,0,5.4,0.1v-1l-0.6-0.1c-0.3-0.1-0.5-0.3-0.6-0.8c-0.1-0.5-0.1-1.8-0.1-4V43.9
			c0-2.1,0-3.4,0.1-3.9c0.1-0.4,0.3-0.7,0.6-0.8l0.6-0.1v-1c-1.6,0.1-3.1,0.1-4.7,0.1C29.5,38.3,28,38.2,26.5,38.1z"/>
		<path d="M77.1,59.1c-0.1-0.5-0.1-1.8-0.1-4v-5.9c0-1.9-0.5-3.3-1.4-4.3c-0.9-1-2.3-1.5-3.9-1.5c-1.2,0-2.2,0.3-3.2,0.9
			c-0.9,0.6-1.8,1.5-2.5,2.6c0-1,0-1.7,0.1-2.1c0-0.4,0-0.8,0.1-1.1l-0.3-0.3c-1.2,0.2-2.4,0.4-3.7,0.5c-1.3,0.1-3,0.2-5.2,0.2v1
			l0.3,0.1c0.5,0.1,0.8,0.4,0.9,1c0.1,0.5,0.2,2.3,0.2,5.2v3.8c0,2.2,0,3.5-0.1,4c-0.1,0.5-0.3,0.7-0.6,0.8L56.9,60v1
			c1.6-0.1,3.3-0.1,5.1-0.1c1.7,0,3.4,0,5,0.1v-1L66.7,60c-0.3-0.1-0.5-0.3-0.6-0.6C66,59.1,66,57.7,66,55.1v-4.6c0-0.6,0-1.1,0-1.5
			s0-0.7,0-1.1c0.2-0.2,0.5-0.4,0.7-0.5c0.2-0.1,0.5-0.2,0.8-0.2c0.6,0,1,0.3,1.3,0.8c0.3,0.5,0.4,1.3,0.4,2.4v4.7
			c0,1.9,0,3.2-0.1,3.8c-0.1,0.6-0.3,0.9-0.6,1L68.2,60v1c1.6-0.1,3.3-0.1,5.1-0.1c1.7,0,3.4,0,5,0.1v-1l-0.6-0.1
			C77.4,59.9,77.2,59.6,77.1,59.1z"/>
		<path d="M88.8,59.1c-0.1-0.5-0.1-1.8-0.1-4v-4.6c0-1.2,0-2.5,0-3.8c0-1.3,0.1-2.3,0.1-3.1l-0.3-0.3c-1.2,0.2-2.4,0.4-3.7,0.5
			c-1.3,0.1-3,0.2-5.2,0.2v1l0.3,0.1c0.5,0.1,0.8,0.4,0.9,1c0.1,0.5,0.2,2.3,0.2,5.2v3.8c0,2.2,0,3.5-0.1,4
			c-0.1,0.5-0.3,0.7-0.6,0.8L79.5,60v1c1.7-0.1,3.5-0.1,5.2-0.1s3.5,0,5.2,0.1v-1l-0.6-0.1C89.1,59.9,88.9,59.6,88.8,59.1z"/>
		<path d="M84.8,34.6c-1.2,0-2.2,0.4-3,1.1c-0.8,0.7-1.2,1.7-1.2,2.8c0,1.1,0.4,2,1.2,2.8c0.8,0.7,1.8,1.1,3,1.1
			c1.2,0,2.2-0.4,3-1.1c0.8-0.7,1.2-1.7,1.2-2.8c0-1.1-0.4-2-1.2-2.8C86.9,34.9,85.9,34.6,84.8,34.6z"/>
		<path d="M132.4,49.7c-1.9-1-3.1-1.7-3.8-2.3c-0.7-0.6-1-1.2-1-1.7c0-0.4,0.1-0.7,0.3-0.9c0.2-0.2,0.5-0.3,0.9-0.3
			c0.8,0,1.8,0.4,2.8,1.3c1,0.9,2,2,3,3.5h0.8c0-0.6-0.1-1.3-0.1-2.1c0-0.8,0-1.5,0-2.2c-0.9-0.6-1.8-1-2.8-1.3
			c-0.9-0.3-2-0.4-3.1-0.4c-2.3,0-4.2,0.5-5.6,1.6c-1.4,1.1-2.1,2.5-2.1,4.2c0,1.1,0.3,2.1,0.9,3c0.6,0.9,1.6,1.7,3,2.5
			c2.3,1.3,3.8,2.3,4.3,2.8c0.6,0.6,0.8,1.1,0.8,1.7c0,0.4-0.1,0.6-0.4,0.8c-0.3,0.2-0.7,0.3-1.2,0.3c-1,0-2.1-0.4-3.2-1.3
			c-1.1-0.8-2.2-2.1-3.3-3.8h-0.8c0,0.9,0.1,1.7,0.1,2.5c0,0.8,0,1.5-0.1,2.3c1.2,0.5,2.4,0.9,3.5,1.1c1.1,0.2,2.2,0.4,3.3,0.4
			c2.6,0,4.7-0.5,6.1-1.5c1.5-1,2.2-2.5,2.2-4.3c0-1.3-0.4-2.4-1.1-3.4C135,51.4,133.9,50.5,132.4,49.7z"/>
		<path d="M149.5,57.5c-0.3,0.1-0.6,0.2-0.9,0.2c-0.6,0-1-0.2-1.3-0.7c-0.3-0.5-0.4-1.2-0.4-2.3v-9.3h3.5V44h-3.5v-5.1l-0.8-0.2
			c-1.3,1.6-2.5,2.8-3.5,3.6c-1,0.7-2.2,1.2-3.4,1.5l-2,0.4v1.1h1.9V55c0,2.1,0.5,3.7,1.5,4.9c1,1.1,2.3,1.7,4.1,1.7
			c1.3,0,2.4-0.3,3.4-1c1-0.6,1.9-1.7,2.7-3.1l-0.5-0.6C150,57.2,149.7,57.4,149.5,57.5z"/>
		<path d="M183.5,52.4c-0.7-1-1.9-1.9-3.4-2.7c-1.9-1-3.1-1.7-3.8-2.3c-0.7-0.6-1-1.2-1-1.7c0-0.4,0.1-0.7,0.3-0.9
			c0.2-0.2,0.5-0.3,0.9-0.3c0.8,0,1.8,0.4,2.8,1.3c1,0.9,2,2,3,3.5h0.8c0-0.6-0.1-1.3-0.1-2.1c0-0.8,0-1.5,0-2.2
			c-0.9-0.6-1.8-1-2.8-1.3c-0.9-0.3-2-0.4-3.1-0.4c-2.3,0-4.2,0.5-5.6,1.6c-1.4,1.1-2.1,2.5-2.1,4.2c0,1.1,0.3,2.1,0.9,3
			c0.6,0.9,1.6,1.7,3,2.5c2.3,1.3,3.8,2.3,4.3,2.8c0.6,0.6,0.8,1.1,0.8,1.7c0,0.4-0.1,0.6-0.4,0.8c-0.3,0.2-0.7,0.3-1.2,0.3
			c-1,0-2.1-0.4-3.2-1.3c-1.1-0.8-2.2-2.1-3.3-3.8h-0.8c0,0.9,0.1,1.7,0.1,2.5c0,0.8,0,1.5-0.1,2.3c1.2,0.5,2.4,0.9,3.5,1.1
			c1.1,0.2,2.2,0.4,3.3,0.4c2.6,0,4.7-0.5,6.1-1.5c1.5-1,2.2-2.5,2.2-4.3C184.6,54.5,184.2,53.4,183.5,52.4z"/>
	</g>
	<path d="M119.8,54.5l0.5,0.4c-1,2.3-2.2,3.9-3.7,5c-1.4,1.1-3.1,1.6-5,1.6c-2.5,0-4.5-0.8-6-2.5c-1.6-1.7-2.4-3.9-2.4-6.5
		c0-2.6,0.9-4.8,2.7-6.5c1.8-1.8,3.9-2.6,6.5-2.6c2.2,0,3.9,0.7,5.3,2c1.4,1.3,2,2.9,2,4.8c0,0.2,0,0.5,0,0.7c0,0.3,0,0.5-0.1,0.8
		h-9.1c0.4,1.5,1.1,2.6,2,3.4c0.9,0.8,1.9,1.2,3.1,1.2c0.7,0,1.4-0.1,2.1-0.4S119,55.2,119.8,54.5z M111.3,44.5
		c-0.4,0-0.7,0.2-1,0.7c-0.2,0.5-0.4,1.2-0.4,2.1c0,0.7,0,1.1,0.1,1.7c0.1,0.6,0,0.6,0.1,1.1l3.2,0l-0.1-0.7
		c-0.1-1.6-0.3-2.7-0.7-3.6C112.2,45,111.8,44.5,111.3,44.5z"/>
	<path d="M167.4,54.5l0.5,0.4c-1,2.3-2.2,3.9-3.7,5c-1.4,1.1-3.1,1.6-5,1.6c-2.5,0-4.5-0.8-6-2.5s-2.4-3.9-2.4-6.5
		c0-2.6,0.9-4.8,2.7-6.5c1.8-1.8,3.9-2.6,6.5-2.6c2.2,0,3.9,0.7,5.3,2c1.4,1.3,2,2.9,2,4.8c0,0.2,0,0.5,0,0.7c0,0.3,0,0.5-0.1,0.8
		h-9.1c0.4,1.5,1.1,2.6,2,3.4c0.9,0.8,1.9,1.2,3.1,1.2c0.7,0,1.4-0.1,2.1-0.4C166.1,55.6,166.7,55.2,167.4,54.5z M159,44.5
		c-0.4,0-0.7,0.2-1,0.7c-0.2,0.5-0.4,1.2-0.4,2.1c0,0.7,0,1.1,0.1,1.7c0.1,0.6,0,0.6,0.1,1.1l3.2,0l-0.1-0.7
		c-0.1-1.6-0.3-2.7-0.7-3.6C159.9,45,159.5,44.5,159,44.5z"/>
	<path d="M106.1,40c0-1-0.5-1.9-1.5-2.6c-1-0.7-2.2-1.1-3.6-1.1c-2.4,0-4.3,0.7-5.8,2.2c-1.5,1.4-2.4,3.3-2.6,5.6h0l-1.7,0.2v1.1
		h1.7v9.8c0,2.2,0,3.5-0.1,4c-0.1,0.5-0.3,0.7-0.6,0.8L91.3,60v1c1.8-0.1,3.6-0.1,5.4-0.1c1.8,0,3.6,0,5.4,0.1v-1l-0.7-0.1
		c-0.4-0.1-0.7-0.3-0.8-0.8c-0.1-0.5-0.2-1.8-0.2-4v-9.8h2.9V44h-2.9v-3.4c0-1.3,0.1-2.2,0.2-2.7c0.1-0.5,0.5-0.7,0.7-0.7
		c0.6,0,0.9,0.3,1.1,0.9c-0.1,0.1-0.2,0.2-0.4,0.3c-0.5,0.4-0.7,1-0.7,1.6c0,0.7,0.2,1.2,0.7,1.6c0.5,0.4,1,0.7,1.7,0.7
		c0.7,0,1.3-0.2,1.8-0.6c0.5-0.4,0.7-1,0.7-1.7C106.1,40.1,106.1,40,106.1,40C106.1,40,106.1,40,106.1,40z"/>
	<path d="M55.7,58.5c-0.2,0.1-0.3,0.1-0.4,0.2c-0.1,0-0.2,0-0.3,0c-0.3,0-0.5-0.1-0.6-0.3c-0.1-0.2-0.1-0.6-0.1-1.2c0-0.4,0-1,0-1.5
		c0-0.6,0-1.4,0.1-2.6c0-1,0-1.8,0.1-2.2c0-0.5,0-0.9,0-1.2c0-2-0.6-3.6-1.8-4.7c-1.2-1.1-2.9-1.7-5.1-1.7c-2.2,0-4.3,0.6-6.3,1.9
		c-1.7,1.1-2.6,2.2-2.9,3.4c0,0.2-0.1,0.4-0.1,0.6c0,0.1,0,0.2,0,0.2c0,0,0,0,0,0c0.1,0.6,0.3,1.1,0.7,1.5c0.5,0.5,1.1,0.7,1.8,0.7
		c0.7,0,1.4-0.2,1.9-0.7c0.5-0.5,0.7-1,0.7-1.7c0-0.2,0-0.1,0-0.5c-0.1-0.4-0.7-2.4-0.1-3c0,0,0.2-0.3,0.7-0.3
		c0.7,0,1.4,0.5,1.9,1.6c0.5,1.1,0.8,2.4,0.8,4.1v0.6l-3.9,0.5c-1.8,0.2-3.2,0.7-4.1,1.5c-0.9,0.7-1.3,1.7-1.3,3
		c0,1.5,0.4,2.7,1.3,3.6c0.9,0.9,2,1.4,3.4,1.4c1.1,0,2.1-0.3,2.8-0.8c0.7-0.5,1.3-1.3,1.8-2.5v0.2c0,1,0.3,1.7,1,2.2
		c0.6,0.5,1.5,0.8,2.7,0.8c1.1,0,2.2-0.2,3.2-0.6c1-0.4,1.9-0.9,2.6-1.6L55.7,58.5z M46.6,57.2c-0.4,0.3-1.8,0.5-2.4-0.2
		c-0.4-0.5-0.6-1.5-0.5-2c0.1-0.8,0.2-1.3,0.6-1.7c1-1.1,2.4-0.6,2.4-0.6V57.2z"/>
	<path d="M172.4,11.8c-6.2,0-11.2,5-11.2,11.2c0,6.2,5,11.2,11.2,11.2c6.2,0,11.2-5,11.2-11.2C183.6,16.9,178.6,11.8,172.4,11.8z
		 M182,23c0,1.5-0.3,2.9-0.9,4.1l-1.9-1.1c0.4-0.9,0.7-2,0.7-3.1c0-3.8-2.9-6.9-6.5-7.3v-2.2C178.1,13.9,182,18,182,23z M172.4,17.3
		c1.9,0,3.5,0.9,4.6,2.3l-4.6,2.6l-4.6-2.6C168.9,18.2,170.6,17.3,172.4,17.3z M166.7,23c0-0.7,0.1-1.3,0.3-1.9l4.5,2.5v5.1
		C168.9,28.3,166.7,25.9,166.7,23z M173.3,23.6l4.5-2.5c0.2,0.6,0.3,1.3,0.3,1.9c0,2.9-2.1,5.2-4.9,5.6V23.6z M171.6,13.5v2.2
		c-3.7,0.4-6.5,3.5-6.5,7.3c0,1.1,0.2,2.1,0.7,3l-1.9,1.1c-0.6-1.2-0.9-2.6-0.9-4.1C162.9,18,166.7,13.9,171.6,13.5z M172.4,32.6
		c-3.2,0-6-1.6-7.8-4l1.9-1.1c1.3,1.8,3.5,2.9,5.8,2.9c2.4,0,4.5-1.1,5.8-2.9l1.9,1.1C178.4,31,175.6,32.6,172.4,32.6z"/>
</g>
</svg>
