<?xml version="1.0" encoding="utf-8"?>
<!-- Generator: Adobe Illustrator 21.1.0, SVG Export Plug-In . SVG Version: 6.00 Build 0)  -->
<svg version="1.1" id="Calque_1" xmlns="http://www.w3.org/2000/svg" xmlns:xlink="http://www.w3.org/1999/xlink" x="0px" y="0px"
	 viewBox="0 0 28.6 31.8" style="enable-background:new 0 0 28.6 31.8;" xml:space="preserve">
<style type="text/css">
	.st0{clip-path:url(#SVGID_2_);}
	.st1{fill:#3C3C3B;}
	.st2{fill:#FFFFFF;}
	.st3{fill:none;stroke:#B1B1B1;stroke-miterlimit:10;}
	.st4{fill:#FFC100;}
	.st5{fill:none;stroke:#D9D9D9;stroke-miterlimit:10;}
	.st6{fill:#1D1D1B;}
	.st7{clip-path:url(#SVGID_4_);}
	.st8{fill:none;}
	.st9{fill:none;stroke:#000000;stroke-width:2;stroke-miterlimit:10;}
	.st10{fill:#B1B1B1;}
	.st11{fill:#C6C6C5;}
	.st12{opacity:0.3;}
	.st13{fill:#E32521;}
	.st14{fill:#E20613;}
	.st15{fill:none;stroke:#B1B1B1;stroke-miterlimit:10;stroke-dasharray:1,9;}
	.st16{fill:#FFFFFF;stroke:#000000;stroke-width:2;stroke-miterlimit:10;}
	.st17{fill:url(#SVGID_5_);}
	.st18{fill:#0000FF;}
	.st19{fill:none;stroke:#FFFFFF;stroke-width:2;stroke-miterlimit:10;}
	.st20{fill:url(#SVGID_6_);}
	.st21{fill:url(#SVGID_7_);}
	.st22{clip-path:url(#SVGID_9_);}
	.st23{fill:none;stroke:#FFFFFF;stroke-miterlimit:10;}
	.st24{fill:url(#SVGID_10_);}
	.st25{fill:#FFFFFF;stroke:#B1B1B1;stroke-miterlimit:10;}
	.st26{fill:#FFFFFF;stroke:#231F20;}
	.st27{fill:none;stroke:#231F20;stroke-width:2;}
	.st28{fill:#F4CD00;}
	.st29{fill:#D9272E;}
	.st30{fill:#000A8B;}
	.st31{fill:#231F20;}
	.st32{fill:#D9D9D9;}
	.st33{fill:#EDEDED;}
	.st34{fill:#DBD9D6;}
	.st35{fill:none;stroke:#1D1D1B;stroke-width:0.5;stroke-miterlimit:10;}
	.st36{clip-path:url(#SVGID_12_);}
</style>
<path d="M21.9,22.8c-1,0-2,0.4-2.6,1.1L9,18c0.1-0.3,0.1-0.6,0.1-0.9S9,16.5,9,16.2l10.1-5.9c0.7,0.6,1.6,1,2.6,1
	c2,0,3.7-1.6,3.7-3.7s-1.6-3.7-3.7-3.7c-2,0-3.7,1.6-3.7,3.7c0,0.3,0.1,0.6,0.1,0.9L8,14.5c-0.7-0.6-1.6-1-2.6-1
	c-2,0-3.7,1.6-3.7,3.7s1.6,3.7,3.7,3.7c1,0,1.9-0.4,2.6-1l10.4,6c-0.1,0.2-0.1,0.5-0.1,0.8c0,2,1.6,3.7,3.7,3.7c2,0,3.7-1.6,3.7-3.7
	C25.6,24.5,23.9,22.8,21.9,22.8z M21.7,6.1c0.9,0,1.7,0.8,1.7,1.7s-0.8,1.7-1.7,1.7c-0.2,0-0.5,0-0.7-0.1c-0.6-0.3-1-0.8-1-1.5
	c0-0.1,0-0.1,0-0.2C20.1,6.7,20.8,6.1,21.7,6.1z M5.4,18.8c-0.9,0-1.6-0.6-1.7-1.5c0-0.1,0-0.1,0-0.2s0-0.1,0-0.2
	c0.1-0.8,0.8-1.5,1.7-1.5c0.2,0,0.5,0,0.7,0.1c0.6,0.3,1,0.8,1,1.5s-0.4,1.3-1,1.5C5.9,18.8,5.6,18.8,5.4,18.8z M21.9,28.2
	c-0.8,0-1.5-0.6-1.6-1.3c0-0.1,0-0.2,0-0.4c0-0.6,0.4-1.2,0.9-1.5c0.2-0.1,0.5-0.2,0.8-0.2c0.9,0,1.7,0.8,1.7,1.7
	C23.6,27.4,22.8,28.2,21.9,28.2z"/>
</svg>
