<?xml version="1.0" encoding="utf-8"?>
<!-- Generator: Adobe Illustrator 21.1.0, SVG Export Plug-In . SVG Version: 6.00 Build 0)  -->
<svg version="1.1" id="Calque_1" xmlns="http://www.w3.org/2000/svg" xmlns:xlink="http://www.w3.org/1999/xlink" x="0px" y="0px"
	 viewBox="0 0 48.7 49" style="enable-background:new 0 0 48.7 49;" xml:space="preserve">
<style type="text/css">
	.st0{fill:#F4CD00;}
	.st1{fill:#D9272E;}
	.st2{fill:#3230AF;}
</style>
<path d="M24.3,3.8c-11.9,0-21.6,9.7-21.6,21.6c0,11.9,9.7,21.6,21.6,21.6c11.9,0,21.6-9.7,21.6-21.6C45.9,13.4,36.2,3.8,24.3,3.8z
	 M7.8,33.3C6.6,30.9,6,28.2,6,25.3C6,15.7,13.4,7.8,22.8,7v4.2c-7.1,0.8-12.6,6.8-12.6,14.1c0,2.1,0.5,4.1,1.3,5.8L7.8,33.3z
	 M24.3,43.7c-6.2,0-11.6-3.1-15-7.7l3.7-2.1c2.6,3.4,6.7,5.6,11.3,5.6c4.6,0,8.7-2.2,11.2-5.6l3.7,2.1C36,40.7,30.5,43.7,24.3,43.7z
	 M37.2,31.2c0.8-1.8,1.3-3.8,1.3-5.9c0-7.3-5.5-13.3-12.6-14.1V7c9.4,0.8,16.8,8.7,16.8,18.3c0,2.9-0.7,5.6-1.8,8L37.2,31.2z"/>
<path class="st0" d="M24.3,14.3c3.6,0,6.8,1.8,8.8,4.5l-8.8,4.9l-8.9-4.9C17.5,16.1,20.7,14.3,24.3,14.3z"/>
<path class="st1" d="M13.3,25.3c0-1.3,0.2-2.6,0.7-3.8l8.8,4.9v9.8C17.4,35.4,13.3,30.9,13.3,25.3z"/>
<path class="st2" d="M25.9,26.5l8.8-4.9c0.4,1.2,0.7,2.4,0.7,3.7c0,5.5-4.1,10.1-9.4,10.9V26.5z"/>
</svg>
