<?xml version="1.0" encoding="utf-8"?>
<!-- Generator: Adobe Illustrator 21.1.0, SVG Export Plug-In . SVG Version: 6.00 Build 0)  -->
<svg version="1.1" id="Calque_1" xmlns="http://www.w3.org/2000/svg" xmlns:xlink="http://www.w3.org/1999/xlink" x="0px" y="0px"
	 viewBox="0 0 33.7 38.5" style="enable-background:new 0 0 33.7 38.5;" xml:space="preserve">
<style type="text/css">
	.st0{clip-path:url(#SVGID_2_);}
	.st1{fill:#3C3C3B;}
	.st2{fill:#FFFFFF;}
	.st3{fill:none;stroke:#B1B1B1;stroke-miterlimit:10;}
	.st4{fill:#FFC100;}
	.st5{fill:none;stroke:#D9D9D9;stroke-miterlimit:10;}
	.st6{fill:#1D1D1B;}
	.st7{clip-path:url(#SVGID_4_);}
	.st8{fill:none;}
	.st9{fill:none;stroke:#000000;stroke-width:2;stroke-miterlimit:10;}
	.st10{fill:#B1B1B1;}
	.st11{fill:#C6C6C5;}
	.st12{opacity:0.3;}
	.st13{fill:#E32521;}
	.st14{fill:#E20613;}
	.st15{fill:none;stroke:#B1B1B1;stroke-miterlimit:10;stroke-dasharray:1,9;}
	.st16{fill:#FFFFFF;stroke:#000000;stroke-width:2;stroke-miterlimit:10;}
	.st17{fill:url(#SVGID_5_);}
	.st18{fill:#0000FF;}
	.st19{fill:none;stroke:#FFFFFF;stroke-width:2;stroke-miterlimit:10;}
	.st20{fill:url(#SVGID_6_);}
	.st21{fill:url(#SVGID_7_);}
	.st22{clip-path:url(#SVGID_9_);}
	.st23{fill:none;stroke:#FFFFFF;stroke-miterlimit:10;}
	.st24{fill:url(#SVGID_10_);}
	.st25{fill:#FFFFFF;stroke:#B1B1B1;stroke-miterlimit:10;}
	.st26{fill:#FFFFFF;stroke:#231F20;}
	.st27{fill:none;stroke:#231F20;stroke-width:2;}
	.st28{fill:#F4CD00;}
	.st29{fill:#D9272E;}
	.st30{fill:#000A8B;}
	.st31{fill:#231F20;}
	.st32{fill:#D9D9D9;}
	.st33{fill:#EDEDED;}
	.st34{fill:#DBD9D6;}
	.st35{fill:none;stroke:#1D1D1B;stroke-width:0.5;stroke-miterlimit:10;}
	.st36{clip-path:url(#SVGID_12_);}
</style>
<g>
	<path d="M16.8,3l-14,8.1v16.1l14,8.1l14-8.1V11.1L16.8,3z M27.7,11.7l-11,6.3l-11-6.3l11-6.3L27.7,11.7z M4.8,13.4l11,6.3v12.7
		l-11-6.3V13.4z M17.8,32.4V19.8l11-6.3v12.7L17.8,32.4z"/>
	<path d="M9.7,21.5c-0.7-0.3-1.5,0.1-1.5,1c0.1,0.7,0.4,1.3,1,1.6c0.6,0.3,1.3,0,1.5-0.7C10.8,22.7,10.3,21.8,9.7,21.5z"/>
	<path d="M24.8,18.7c0,0-0.2,0-0.3,0.1c-0.7,0.2-1.2,1.2-1.1,1.9c0.1,0.7,0.7,1.1,1.3,0.9c0.7-0.2,1.3-1.2,1.2-1.9
		C25.8,19.1,25.4,18.7,24.8,18.7z"/>
	<path d="M20.9,24.8c-0.6,0.3-0.9,0.8-0.9,1.5c-0.1,0.5,0.1,0.9,0.5,1.1c0.4,0.2,0.8,0.1,1.2-0.2c0.5-0.4,0.7-0.9,0.8-1.4
		C22.5,24.8,21.7,24.3,20.9,24.8z"/>
	<path d="M22.8,12.2c0.4-0.3,0.6-0.9,0.3-1.4c0,0-0.1-0.1-0.2-0.2c-0.5-0.5-1.6-0.5-2.2-0.1c-0.6,0.4-0.6,1.1-0.1,1.6
		C21.2,12.6,22.3,12.6,22.8,12.2z"/>
	<path d="M17.8,12.2c0.4-0.3,0.6-0.9,0.3-1.4c0,0-0.1-0.1-0.2-0.2c-0.5-0.5-1.6-0.5-2.2-0.1c-0.6,0.4-0.6,1.1-0.1,1.6
		C16.1,12.6,17.2,12.6,17.8,12.2z"/>
	<path d="M10.9,12.3c0.6,0.2,1.1,0.2,1.6,0c0.8-0.4,0.9-1.4,0.2-1.8c-0.6-0.3-1.2-0.4-1.8-0.1c-0.5,0.2-0.8,0.6-0.7,1
		C10.2,11.8,10.5,12.2,10.9,12.3z"/>
</g>
</svg>
